<?xml version="1.0" encoding="UTF-8"?>
<!DOCTYPE svg PUBLIC "-//W3C//DTD SVG 1.0//EN" "http://www.w3.org/TR/2001/REC-SVG-20010904/DTD/svg10.dtd">
<!-- Creator: CorelDRAW 2020 (64 Bit) -->
<svg enable-background="new 0 0 10 10" height="10" viewBox="0 0 10 10" width="10" xmlns="http://www.w3.org/2000/svg">
 <g id="Camada_x0020_1">
  <metadata id="CorelCorpID_0Corel-Layer"/>
  <path fill="param(fill)" fill-opacity="param(fill-opacity)" stroke="param(outline)" stroke-opacity="param(outline-opacity)" stroke-width="param(outline-width)" d="M-0 8.1701l0 1.3649c0.5652,-0.299 0.7773,0.3076 1.3649,0.3076 0.2884,0 0.4759,-0.0065 0.7345,-0.169 0.1881,-0.1182 0.4477,-0.3306 0.7975,-0.152 0.3316,0.1695 0.3073,0.321 0.967,0.321 0.5545,0 0.8167,-0.5881 1.3398,-0.321 0.3317,0.1695 0.3073,0.321 0.967,0.321 0.5546,0 0.8168,-0.5881 1.3398,-0.321 0.0782,0.04 0.1475,0.0969 0.221,0.1444 0.1605,0.1039 0.3568,0.1628 0.5578,0.1766l0.1847 0c0.1962,-0.0134 0.3878,-0.0697 0.5459,-0.169 0.0769,-0.0482 0.1399,-0.1015 0.22,-0.1453 0.1784,-0.0975 0.4311,-0.0841 0.6027,0.0067l0 -1.3649c-0.2175,-0.0507 -0.0629,-0.0577 -0.3653,-0.0577 -0.3405,0 -0.5005,0.3844 -1.0958,0.3844 -0.1952,0 -0.456,-0.0737 -0.5807,-0.1498 -0.3079,-0.1877 -0.28,-0.2346 -0.6303,-0.2346 -0.3405,0 -0.5005,0.3844 -1.0958,0.3844 -0.1953,0 -0.4561,-0.0737 -0.5807,-0.1498 -0.3079,-0.1877 -0.28,-0.2346 -0.6304,-0.2346 -0.2049,0 -0.3289,0.1206 -0.5032,0.2273 -0.331,0.2028 -0.853,0.2028 -1.1732,0.0074 -0.3079,-0.1877 -0.28,-0.2346 -0.6303,-0.2346 -0.2049,0 -0.329,0.1206 -0.5032,0.2273 -0.331,0.2028 -0.8531,0.2028 -1.1732,0.0074 -0.3252,-0.1982 -0.278,-0.2346 -0.6496,-0.2346 -0.0916,0 -0.1495,0.0388 -0.2307,0.0577zm0.0192 -7.5357l0 2.3838c0,0.1179 0.1321,0.2499 0.2499,0.2499l1.0574 0 0 -2.8836 -1.0574 0c-0.1178,0 -0.2499,0.1321 -0.2499,0.2499zm1.884 -0.3844l0 3.1527c0,0.1179 0.132,0.2499 0.2499,0.2499l0.6536 0c0.1178,0 0.2499,-0.132 0.2499,-0.2499l0 -3.1527c0,-0.1179 -0.1321,-0.2499 -0.2499,-0.2499l-0.6536 0c-0.1179,0 -0.2499,0.132 -0.2499,0.2499zm1.7301 3.0373c0.1669,0.0389 0.3073,0.0544 0.4689,0.1079 0.4424,0.1462 0.5963,0.2875 0.9181,0.5429 0.0725,0.0576 0.0883,0.096 0.1464,0.1611 0.1997,0.2242 0.3342,0.4411 0.4469,0.7258 0.1158,0.2926 0.1727,0.6099 0.1727,1.0191 0.3534,0.187 0.1964,0.2242 0.5491,0.0108 0.2558,-0.1548 0.5837,-0.2415 0.9119,-0.2415 0.0974,0 0.1047,0.0193 0.2114,0.0193 0,-0.5495 -0.474,-1.4748 -0.8291,-1.9199 -0.0785,-0.0984 -0.1255,-0.1555 -0.2141,-0.2472 -0.049,-0.0507 -0.0559,-0.0774 -0.1046,-0.1261l-0.3599 -0.313c-0.2337,-0.1836 -0.5802,-0.4188 -0.854,-0.53 -0.5368,-0.2181 -0.7976,-0.3263 -1.4637,-0.3818l0 1.1726zm0 -1.7301c0.5656,0 1.3307,0.2323 1.8135,0.4742 0.7423,0.3719 1.3548,0.9149 1.8277,1.5941 0.0849,0.1221 0.143,0.2273 0.2167,0.36 0.2944,0.5302 0.4948,1.1207 0.5622,1.7446 0.0131,0.1213 0.0375,0.1072 0.1277,0.1607 0.2527,0.1502 0.1342,0.1588 0.4969,-0.058 0.2958,-0.1767 0.7481,-0.2601 1.0878,-0.181 0,-0.4541 -0.3491,-1.4403 -0.5572,-1.865 -0.0407,-0.0832 -0.0802,-0.1403 -0.1223,-0.2238 -0.183,-0.3634 -0.5678,-0.894 -0.863,-1.2131l-0.529 -0.5091c-0.319,-0.2837 -0.8757,-0.6419 -1.2477,-0.8284 -0.084,-0.042 -0.1579,-0.0704 -0.2371,-0.1089 -0.6012,-0.2921 -1.5947,-0.5191 -2.2684,-0.5191l-0.3076 0 0 1.1726zm-3.6333 4.6522l0 1.3649c0.2717,-0.0226 0.5132,-0.1022 0.8907,0.109 0.2988,0.167 0.2231,0.2371 0.6471,0.2371 0.1732,0 0.3724,-0.1594 0.4958,-0.2347 0.3171,-0.1934 0.8399,-0.1956 1.1615,0 0.3254,0.1979 0.2902,0.2347 0.6495,0.2347 0.2969,0 0.4818,-0.3844 1.0766,-0.3844 0.5899,0 0.7763,0.3844 1.0766,0.3844 0.415,0 0.3274,-0.0579 0.6471,-0.2372 0.3424,-0.1919 0.8252,-0.1906 1.1662,0.0001 0.2988,0.167 0.2232,0.2371 0.6472,0.2371 0.2957,0 0.4932,-0.3844 1.0765,-0.3844 0.099,0 0.2155,0.0307 0.3076,0.0384l0 -1.3649c-0.2836,0 -0.5471,-0.1008 -0.946,0.1498 -0.0794,0.0499 -0.1395,0.0934 -0.2224,0.1428 -0.1548,0.0921 -0.4126,0.092 -0.5751,0.0091 -0.3316,-0.1694 -0.3073,-0.3209 -0.967,-0.3209 -0.1939,0 -0.4193,0.0917 -0.5422,0.169 -0.1894,0.1189 -0.4737,0.3333 -0.7958,0.1501 -0.3959,-0.2252 -0.3838,-0.3191 -0.9689,-0.3191 -0.1938,0 -0.4192,0.0917 -0.5422,0.169 -0.2038,0.1281 -0.4573,0.3257 -0.7975,0.1519 -0.3316,-0.1694 -0.3073,-0.3209 -0.967,-0.3209 -0.1939,0 -0.4193,0.0917 -0.5422,0.169 -0.2039,0.1281 -0.4574,0.3257 -0.7975,0.1519 -0.3317,-0.1694 -0.3074,-0.3209 -0.9671,-0.3209 -0.1067,0 -0.114,0.0192 -0.2114,0.0192z"/>
 </g>
</svg>
