<?xml version="1.0" encoding="UTF-8"?>
<!DOCTYPE svg PUBLIC "-//W3C//DTD SVG 1.0//EN" "http://www.w3.org/TR/2001/REC-SVG-20010904/DTD/svg10.dtd">
<!-- Creator: CorelDRAW 2020 (64 Bit) -->
<svg enable-background="new 0 0 10 10" height="10" viewBox="0 0 10 10" width="10" xmlns="http://www.w3.org/2000/svg">
 <g id="Camada_x0020_1">
  <metadata id="CorelCorpID_0Corel-Layer"/>
  <g id="_1780483207392">
   <path fill="param(fill)" fill-opacity="param(fill-opacity) 80%" stroke="param(outline)" stroke-opacity="param(outline-opacity)" stroke-width="param(outline-width) 0" d="M3.3064 8.555c0,0.0722 0.0234,0.101 0.0063,0.1611 -0.0261,0.0917 -0.1276,0.261 -0.1276,0.4457 0,0.5654 0.5496,-0.026 1.2807,-0.0354 0.1698,-0.0021 0.2704,0.0181 0.4335,0.0181 0.343,0 0.5484,-0.0422 0.8662,0.0343 0.3237,0.0778 0.5126,0.2258 0.7093,0.2258 0.2777,0 0.141,-0.4179 0.0975,-0.5482 -0.091,-0.2726 -0.0456,-0.0943 -0.0456,-0.4748 0,-0.3754 -0.2385,-0.6496 -0.5263,-0.8252 -0.6084,-0.3708 -2.0717,-0.365 -2.5317,0.329 -0.1639,0.2473 -0.1625,0.3837 -0.1625,0.6697zm0.8311 0.0172c-0.1059,0 -0.1908,-0.0596 -0.2475,-0.1162 -0.2263,-0.2256 -0.1089,-0.593 0.0745,-0.7159 0,0.2118 0.0457,0.2391 0.2006,0.3019 0.388,0.1575 0.2165,0.5303 -0.0276,0.5303zm1.2986 -0.2773c0,-0.0396 0.0665,-0.1429 0.0918,-0.1682 0.1537,-0.1537 0.341,-0.0389 0.341,-0.3867 0.1146,0.0769 0.2346,0.3051 0.1935,0.4877 -0.1038,0.4598 -0.6264,0.4319 -0.6264,0.0672z"/>
   <path fill="param(fill)" fill-opacity="param(fill-opacity) 80%" stroke="param(outline)" stroke-opacity="param(outline-opacity)" stroke-width="param(outline-width) 0" d="M6.4923 7.7228c0,-1.4762 1.1825,-2.058 0.7617,-3.8664 -0.0481,0.0256 -0.0902,0.0373 -0.1445,0.0635 -0.1962,0.0942 -0.1962,0.1028 -0.3725,0.2336 -0.1535,0.114 -0.2717,0.2568 -0.3859,0.4111 -0.1047,0.1408 -0.2075,0.3598 -0.2608,0.5537 -0.2061,0.747 -0.0513,1.4814 0.2215,2.1958 0.0315,0.0819 0.1281,0.3483 0.1806,0.4087zm0.0345 -2.4273c0.032,-0.1374 0.3396,-0.7593 0.6927,-0.5721 -0.0098,0.4364 -0.4693,0.41 -0.5198,0.4332 -0.0706,0.0323 -0.1126,0.0985 -0.1729,0.139z"/>
   <path fill="param(fill)" fill-opacity="param(fill-opacity) 80%" stroke="param(outline)" stroke-opacity="param(outline-opacity)" stroke-width="param(outline-width) 0" d="M2.4926 4.6365c0,0.5682 0.2333,1.1611 0.4272,1.549 0.2184,0.4371 0.4213,0.8897 0.4213,1.5373l0.1854 -0.4213c0.2184,-0.5578 0.3867,-1.2794 0.2822,-1.8847 -0.0875,-0.5071 -0.3055,-0.9611 -0.7222,-1.2707 -0.1633,-0.1212 -0.1898,-0.1465 -0.3744,-0.2321 -0.0518,-0.024 -0.0871,-0.0336 -0.1328,-0.0577 -0.0784,0.337 -0.0866,0.436 -0.0866,0.7801zm0.2944 0.0521c0.199,0 0.4788,0.4329 0.5194,0.6069 -0.0587,-0.0394 -0.1116,-0.1174 -0.1848,-0.1443 -0.0447,-0.0165 -0.498,0.0055 -0.5077,-0.4279 0.0705,-0.0424 0.0843,-0.0347 0.1731,-0.0347z"/>
   <path fill="param(fill)" fill-opacity="param(fill-opacity) 80%" stroke="param(outline)" stroke-opacity="param(outline-opacity)" stroke-width="param(outline-width) 0" d="M8.7637 0.2809c0.096,0.1169 0.1737,0.2364 0.1737,0.4024 0,0.6229 -1.8978,0.884 -2.514,0.884 0.0285,0.064 -0.0047,0.0198 0.0688,0.0652 0.2119,0.1313 0.3168,0.2312 0.479,0.4171 0.2172,0.2491 0.2534,0.4015 0.3731,0.603 0.2891,0 0.6576,-0.0536 0.8964,-0.1002 0.2915,-0.0569 0.4831,-0.1158 0.73,-0.2146 0.7589,-0.3033 1.1011,-0.9647 0.7055,-1.5479 -0.0416,-0.0615 -0.1029,-0.1234 -0.1601,-0.1721 -0.0381,-0.0324 -0.0502,-0.0465 -0.0812,-0.0752 -0.1518,-0.1407 -0.7415,-0.5044 -0.9456,-0.5426l0.2742 0.2809z"/>
   <path fill="param(fill)" fill-opacity="param(fill-opacity) 80%" stroke="param(outline)" stroke-opacity="param(outline-opacity)" stroke-width="param(outline-width) 0" d="M1.0786 0.2809c-0.096,0.1169 -0.1738,0.2364 -0.1738,0.4024 0,0.6229 1.8979,0.884 2.514,0.884 -0.0285,0.064 0.0047,0.0198 -0.0689,0.0652 -0.2118,0.1313 -0.3167,0.2312 -0.4789,0.4171 -0.2172,0.2491 -0.2534,0.4015 -0.3731,0.603 -0.2891,0 -0.6576,-0.0536 -0.8964,-0.1002 -0.2915,-0.0569 -0.4831,-0.1158 -0.73,-0.2146 -0.7589,-0.3033 -1.1011,-0.9647 -0.7055,-1.5479 0.0416,-0.0615 0.1029,-0.1234 0.1601,-0.1721 0.0381,-0.0324 0.0502,-0.0465 0.0812,-0.0752 0.1517,-0.1407 0.7415,-0.5044 0.9456,-0.5426l-0.2742 0.2809z"/>
   <path fill="param(fill)" fill-opacity="param(fill-opacity) 80%" stroke="param(outline)" stroke-opacity="param(outline-opacity)" stroke-width="param(outline-width) 0" d="M2.7697 2.7294c0.0712,-0.0477 0.1148,-0.1711 0.304,-0.3198 0.1822,-0.1431 0.2244,-0.1384 0.4594,-0.1642 0.2069,-0.0226 0.3147,-0.0786 0.4462,-0.1772 0.1996,-0.1496 0.375,-0.5231 0.7297,-0.0326 0.0513,0.0709 0.1688,0.2717 0.1904,0.3642 0.1125,-0.0826 0.2206,-0.6068 0.5887,-0.6068 0.1902,0 0.3113,0.4002 0.7963,0.4511 0.2884,0.0303 0.4148,0.0662 0.6277,0.3076 0.0471,0.0535 0.0995,0.1428 0.1515,0.1777 -0.0396,-0.1708 -0.2604,-0.4164 -0.3848,-0.5335 -0.0874,-0.0821 -0.1869,-0.1214 -0.3098,-0.1579 -0.5347,-0.1593 -0.6862,-0.8691 -1.4522,-0.8691 -0.7628,0 -0.9245,0.705 -1.439,0.865 -0.2402,0.0747 -0.3932,0.1821 -0.5384,0.3971 -0.0564,0.0835 -0.1452,0.1935 -0.1696,0.2983z"/>
   <path fill="param(fill)" fill-opacity="param(fill-opacity) 80%" stroke="param(outline)" stroke-opacity="param(outline-opacity)" stroke-width="param(outline-width) 0" d="M5.4014 9.838c0.2341,0 0.5237,-0.302 0.6233,-0.4508 -0.1207,-0.0281 -0.2358,-0.0765 -0.3649,-0.1029 -0.3695,-0.0753 -1.1387,-0.0889 -1.502,0.0021 -0.0514,0.0129 -0.1278,0.0307 -0.1786,0.0466 -0.0615,0.0191 -0.108,0.0397 -0.1709,0.0542 0.0219,0.0822 0.1916,0.2287 0.2557,0.2816 0.3773,0.3116 0.5806,0.1434 0.8525,-0.0389 0.0369,0.0247 0.0497,0.0429 0.0865,0.0696 0.1405,0.1018 0.2208,0.1385 0.3983,0.1385z"/>
   <path fill="param(fill)" fill-opacity="param(fill-opacity) 80%" stroke="param(outline)" stroke-opacity="param(outline-opacity)" stroke-width="param(outline-width) 0" d="M4.8994 3.9982l-0.646 0.4717 0.2485 -0.7609 -0.6477 -0.4694 0.7995 0.0016 0.1938 -0.6012 -0.0507 0.0372 -0.056 -0.2403c-0.0159,-0.0687 -0.1209,-0.2464 -0.1637,-0.3055 -0.2431,-0.3361 -0.257,-0.115 -0.5003,0.0673 -0.1712,0.1281 -0.3101,0.1851 -0.5261,0.2088 -0.1965,0.0215 -0.2208,0.008 -0.3766,0.1304 -0.1219,0.0959 -0.2137,0.2596 -0.3139,0.3269l-0.1981 0.1329c-0.0098,0.0501 -0.0346,0.0949 -0.0535,0.1426 -0.049,0.1243 -0.0986,0.2681 -0.1437,0.4202l0.2114 0.1118c0.038,0.0203 0.0832,0.0344 0.123,0.053 0.1692,0.0785 0.2629,0.1441 0.4107,0.2537 0.4618,0.343 0.7068,0.844 0.8032,1.4022 0.111,0.6432 -0.0585,1.396 -0.2968,2.0041l-0.1816 0.4128c0.5204,-0.6065 1.8838,-0.5964 2.4655,-0.2418 0.1111,0.0678 0.2149,0.1502 0.3005,0.2475 -0.071,-0.1151 -0.1382,-0.3088 -0.1794,-0.4169 -0.2872,-0.7518 -0.4466,-1.5292 -0.2277,-2.3231 0.0573,-0.208 0.1655,-0.4481 0.2936,-0.6209 0.1259,-0.1699 0.2576,-0.3268 0.4282,-0.4535 0.1495,-0.1109 0.2355,-0.1718 0.4056,-0.2536 0.0446,-0.0214 0.0946,-0.0369 0.1371,-0.0596l0.2074 -0.1102c-0.0245,-0.08 -0.0492,-0.1547 -0.0749,-0.2319l-0.1131 -0.3318 -0.2049 -0.1374c-0.0827,-0.0555 -0.1205,-0.1344 -0.1829,-0.2051 -0.1775,-0.2012 -0.2623,-0.2262 -0.5227,-0.2534 -0.2246,-0.0235 -0.4043,-0.1113 -0.5719,-0.2596 -0.0331,-0.0292 -0.1816,-0.1811 -0.2073,-0.1905 -0.2513,0 -0.3258,0.4529 -0.4925,0.5753l-0.0642 0.047 0.2135 0.6627 0.7995 -0.0016 -0.6475 0.4694 0.2484 0.7609 -0.6459 -0.4717z"/>
  </g>
 </g>
</svg>
