<?xml version="1.0" encoding="UTF-8"?>
<!DOCTYPE svg PUBLIC "-//W3C//DTD SVG 1.0//EN" "http://www.w3.org/TR/2001/REC-SVG-20010904/DTD/svg10.dtd">
<!-- Creator: CorelDRAW 2020 (64 Bit) -->
<svg enable-background="new 0 0 10 10" height="10" viewBox="0 0 10 10" width="10" xmlns="http://www.w3.org/2000/svg">
 <g id="Camada_x0020_1">
  <metadata id="CorelCorpID_0Corel-Layer"/>
  <g id="_1813958136176">
   <path fill="param(fill)" fill-opacity="param(fill-opacity) 204" stroke="param(outline)" stroke-opacity="param(outline-opacity)" stroke-width="param(outline-width) 0" d="M0.0435 3.8563l6.038 0c0.1905,0 0.346,0.1554 0.346,0.3459l0 3.4095c0,0.1905 -0.1555,0.3459 -0.346,0.3459l-6.038 0c-0.0239,0 -0.0435,-0.0194 -0.0435,-0.0437l0 -4.0139c0,-0.0243 0.0196,-0.0437 0.0435,-0.0437z"/>
   <path fill="param(fill)" fill-opacity="param(fill-opacity) 204" stroke="param(outline)" stroke-opacity="param(outline-opacity)" stroke-width="param(outline-width) 0" d="M6.4275 5.2826l2.7908 0c0.3432,0 0.6242,0.281 0.6242,0.6239l0 0.0009c0,0.3429 -0.281,0.6239 -0.6242,0.6239l-2.7908 0 0 -1.2487z"/>
   <path fill="param(fill)" fill-opacity="param(fill-opacity) 204" stroke="param(outline)" stroke-opacity="param(outline-opacity)" stroke-width="param(outline-width) 0" d="M-0 2.5802c0.0736,-0.0296 0.1472,-0.063 0.2211,-0.1001 0.6221,-0.3134 0.5102,-0.3664 0.8827,-0.6157 0.1265,0.0848 0.2633,0.233 0.3972,0.3345 0.6582,0.5003 1.4739,0.6725 2.2999,0.4813 0.3544,-0.0824 0.7071,-0.2579 0.9965,-0.4667 0.1345,-0.0973 0.2841,-0.2596 0.4174,-0.3491 0.3625,0.2429 0.6522,0.6311 1.386,0.8095 0.977,0.2368 1.766,-0.0158 2.5214,-0.6301 0.0841,-0.0682 0.1149,-0.1197 0.2039,-0.1794 0.2435,0.1632 0.356,0.2873 0.5164,0.4066l0 -2.0378c-0.107,-0.121 -0.2306,-0.2037 -0.4354,-0.2273 -0.5295,-0.0611 -0.6949,0.4185 -1.0157,0.819 -0.4173,0.5207 -1.3528,0.7635 -1.9821,0.2283 -0.5883,-0.4995 -0.5236,-0.8032 -0.9211,-0.9953 -0.2358,-0.1136 -0.5214,-0.0481 -0.6981,0.0926 -0.1961,0.1564 -0.2382,0.3548 -0.403,0.538 -0.1545,0.1717 -0.2887,0.3268 -0.4883,0.452 -1.3625,0.8534 -2.1926,-0.8464 -2.3511,-0.974 -0.1906,-0.1545 -0.4538,-0.2112 -0.6925,-0.119 -0.3384,0.1301 -0.3523,0.429 -0.8552,0.9208l0 1.6119z"/>
  </g>
 </g>
</svg>
