<?xml version="1.0" encoding="UTF-8"?>
<!DOCTYPE svg PUBLIC "-//W3C//DTD SVG 1.0//EN" "http://www.w3.org/TR/2001/REC-SVG-20010904/DTD/svg10.dtd">
<!-- Creator: CorelDRAW 2020 (64 Bit) -->
<svg enable-background="new 0 0 7 10" height="10" viewBox="0 0 7 10" width="7" xmlns="http://www.w3.org/2000/svg">
 <g id="Camada_x0020_1">
  <metadata id="CorelCorpID_0Corel-Layer"/>
  <path fill="param(fill)" fill-opacity="param(fill-opacity) 80%" stroke="param(outline)" stroke-opacity="param(outline-opacity)" stroke-width="param(outline-width)" fill-rule="nonzero" d="M2.456 1.7475c0.0335,0.0404 0.0588,0.0789 0.1044,0.1117 0.0678,0.0492 0.0594,0.0244 0.1349,0.0747 0.4648,0.1601 0.7987,0.2859 1.4633,-0.0522 0.2793,-0.1418 0.1686,-0.1494 0.2988,-0.2683 0.0288,-0.1594 0.1286,-0.3073 0.0625,-0.4994 -0.0841,-0.2431 -0.198,-0.3186 -0.4138,-0.4955 -0.0661,-0.0541 -0.1376,-0.072 -0.2295,-0.0968 -0.2394,-0.0648 -0.3233,-0.0903 -0.6322,-0.0705 -0.0304,0.0091 -0.1874,0.0156 -0.2934,0.0514 -0.2672,0.0903 -0.3083,0.1624 -0.5008,0.3294l-0.071 0.0545c-0.0031,-0.0042 -0.0131,0.0096 -0.0205,0.0134 -0.0094,0.1422 -0.0119,0.0201 -0.0744,0.1253 -0.0142,0.0241 -0.0462,0.1307 -0.0526,0.1628 -0.0194,0.099 0.0095,0.2397 0.0488,0.3281 0.0373,0.0831 0.1129,0.1552 0.1754,0.231l0 0.0004zm1.2681 6.1114c-0.1571,-0.0011 -0.2517,-0.0647 -0.5278,-0.0412 -0.3182,0.0271 -0.378,0.0965 -0.618,0.2222 -0.3649,0.1909 -1.0956,0.9548 -1.3536,1.2666 -0.0493,0.0598 -0.0602,0.0899 -0.1095,0.1433l-0.042 0.2146c0.1617,-0.0022 0.1502,-0.0096 0.3722,-0.2272 0.0662,-0.0647 0.0924,-0.0739 0.1449,-0.1334 0.1287,-0.1464 1.2979,-1.1152 1.4402,-1.198 0.2163,-0.1258 0.3039,-0.0686 0.5207,-0.0176 0.1424,0.0335 0.3885,0.0889 0.4773,0.1384 0.5512,0.0777 1.3539,0.5107 1.5629,0.4303 -0.0199,-0.1018 -0.0525,-0.0843 -0.1732,-0.1315l-1.1845 -0.4795c-0.137,-0.0496 -0.441,-0.1373 -0.5093,-0.1868l-0.0004 -0.0004zm-0.1355 -4.8341c-0.3141,0.0114 -1.2617,-0.7619 -1.3804,-0.8964 -0.0839,-0.0504 -0.1701,-0.1224 -0.2283,-0.1803 -0.051,-0.0507 -0.1691,-0.1453 -0.1838,-0.1872 -0.208,-0.0697 -0.3082,-0.2965 -0.5769,-0.4806 -0.0715,-0.0492 -0.1103,-0.1022 -0.1755,-0.1795 -0.1859,-0.2203 -0.4997,-0.521 -0.7564,-0.6567l-0.0257 -0.3736c-0.0589,-0.101 0.0393,-0.0468 -0.1449,-0.0705 -0.061,0.2341 -0.0594,0.6472 -0.0668,0.9227 -0.0036,0.1319 -0.0399,0.1537 -0.0446,0.2836 -0.0305,0.84 0.0799,1.6759 0.1061,2.5091 0.0119,0.3949 0.0293,0.8344 0.0592,1.2411 0.0142,0.194 0.0894,0.3739 0.093,0.5717 0.0041,0.2309 0.042,0.4108 0.042,0.622 0,0.1754 0.0378,0.4136 0.0666,0.5904 0.0295,0.1807 0.0262,0.4212 0.0216,0.627 -0.0053,0.212 -0.0053,0.4334 -0.0026,0.6453 0.0031,0.2692 0.124,0.8767 0.1265,1.1923 0.0022,0.2698 -0.0068,0.3568 0.1128,0.5714l0.1502 -0.0022 0.0331 -0.0114c0.0227,-0.4174 -0.0788,-0.4574 -0.0757,-0.6956 0.4247,-0.2604 0.3843,-0.2489 0.725,-0.5001 0.1271,-0.0938 0.2016,-0.1829 0.3019,-0.2813 0.1034,-0.1014 0.1029,-0.0568 0.1859,-0.1281 0.3691,-0.3176 0.1848,-0.2943 0.785,-0.7162 0.1139,-0.0801 0.2562,-0.1841 0.3491,-0.273 0.0992,-0.0945 0.0719,-0.0614 0.1789,-0.1337 0.0851,-0.0584 0.0752,-0.1106 0.1811,-0.0968 0.1765,-0.4368 1.289,0.4885 1.4035,0.59 0.4967,0.4402 0.4914,0.3239 0.891,0.5236 0.649,0.3244 0.7439,0.0213 0.7355,0.3427 -0.0025,0.1002 -0.0198,0.1068 0.0437,0.1734 0.0644,-0.0164 0.0625,0.0201 0.1034,-0.1552 0.0708,-0.3034 0.0393,-0.2706 0.0719,-0.4722l0.0383 -0.0889c-0.0651,-0.4463 -0.0036,-0.0739 0.0152,-0.6509l0.0583 -0.6773c0.0862,-0.8805 -0.0011,-1.7229 -0.0024,-2.6171 -0.0012,-0.3998 0.0146,-0.9456 -0.0337,-1.3271 -0.0525,-0.414 -0.0147,-0.9381 -0.0304,-1.3707 -0.0888,-0.0548 0.011,-0.0412 -0.1576,-0.051l0.0101 0.4608c-0.0477,0.1292 -0.2474,0.1807 -0.3707,0.2569l-0.5539 0.4071c-0.3932,0.2149 -0.7696,0.5766 -0.9198,0.6708 -0.0887,0.0556 -0.1114,0.0522 -0.2,0.1182l-0.9365 0.6575c-0.2395,0.1341 -0.3681,-0.0172 -0.4926,-0.0984 -0.2477,-0.1612 -2.012,-1.4858 -2.1048,-1.631 -0.0734,-0.0321 -0.0173,-0.0054 -0.0667,-0.0389 -0.1512,-0.1026 -0.5633,-0.375 -0.6132,-0.4654 -0.1401,-0.0335 -0.0887,-0.2684 -0.0861,-0.4059 0.0022,-0.1295 -0.0199,-0.3312 0.0572,-0.4238 0.136,0.032 0.4756,0.4212 0.4821,0.4608 0.077,0.037 0.022,0.0046 0.0834,0.0534 0.086,0.0686 0.3335,0.3373 0.3675,0.4224 0.0042,0.0022 0.011,0.0042 0.0369,0.0282l0.0901 0.098c0.0505,0.0564 0.082,0.0957 0.1277,0.1456 0.0955,0.1056 0.1864,0.1803 0.2788,0.2752 0.2414,0.2481 0.3185,0.2611 0.464,0.3819 0.0589,0.0488 0.0251,0.0305 0.0646,0.0736l0.7088 0.5321c0.0635,0.0416 0.294,0.1688 0.378,0.207 0.2256,0.1026 0.6111,-0.1898 0.7781,-0.2859 0.1474,-0.085 0.1884,-0.1425 0.336,-0.2351 0.1648,-0.1033 0.1847,-0.1628 0.3112,-0.2516l1.4002 -1.2662c0.0042,-0.1068 0.028,-0.0423 -0.0199,-0.0945 -0.0681,0.0164 -0.2026,0.1292 -0.3249,0.2161 -0.0888,0.0634 -0.198,0.1464 -0.2862,0.2234 -0.1707,0.149 -0.3271,0.2855 -0.5309,0.4025 -0.0824,0.0476 -0.003,0.0103 -0.0944,0.0426 -0.0604,0.0873 -0.1995,0.1552 -0.3329,0.2432 -0.2693,0.1776 -0.8174,0.6804 -1.0312,0.6884l-0.003 -0.0016zm-3.1822 -1.1046l2.1122 1.546c0.0719,0.0484 0.1287,0.109 0.1873,0.1509l0.4211 0.2447c0.0866,0.0667 0.0641,0.0899 0.1784,0.1323 0.2065,0.0755 0.3622,-0.0728 0.493,-0.1513l2.0115 -1.334c0.1253,-0.0972 0.2472,-0.1616 0.3847,-0.2702 0.0861,-0.0679 0.2851,-0.2439 0.3921,-0.2714 0.0121,0.0877 0.0127,0.2204 -0.0208,0.2951 -0.0437,0.0968 -0.88,0.651 -1.0118,0.7295l-0.6458 0.4146c-0.1686,0.127 -0.4826,0.2913 -0.6526,0.3846 -0.2185,0.1197 -0.6205,0.5127 -0.9791,0.438 -0.1953,-0.0409 -0.7451,-0.4502 -0.8752,-0.5352 -0.1533,-0.1006 -0.291,-0.2138 -0.4138,-0.2935 -0.1264,-0.0819 -0.2594,-0.173 -0.4126,-0.2771l-0.8317 -0.5629c-0.4962,-0.3423 -0.5586,-0.1761 -0.5654,-0.7494 0.1296,-0.005 0.1659,0.0507 0.2284,0.1098l0 -0.0004zm2.1462 2.1196c0.9891,0.6129 1.0117,0.4074 2.5668,-0.5043 0.2032,-0.1189 0.9782,-0.6282 1.1219,-0.7604l0.3372 -0.2191c0.003,-0.0062 0.0157,-0.0008 0.0231,0.0008 0.0377,0.0587 0.0278,0.1635 0.0036,0.2488 -0.0298,0.1048 -0.0645,0.0854 -0.1647,0.1369l-0.409 0.2291c-0.0689,0.0416 -0.1129,0.0911 -0.1745,0.1357 -0.0535,0.0388 -0.1333,0.0823 -0.1958,0.1197 -0.1396,0.0831 -0.2456,0.1742 -0.3852,0.2481 -0.0824,0.0438 -0.1507,0.0587 -0.2273,0.0976l-0.5876 0.3598c-0.8888,0.4921 -1.1529,0.6549 -1.8622,0.2546 -0.769,-0.4337 -1.2007,-0.7748 -1.9662,-1.1976l-0.3622 -0.2379c-0.0079,-0.1391 -0.0646,-0.2656 -0.0084,-0.3895 0.1544,0.0134 0.1259,0.0321 0.2225,0.114 0.1665,0.141 1.8372,1.2216 2.0676,1.3645l0.0005 -0.0008zm1.5451 0.5206l1.5814 -0.9052c0.1034,-0.0724 0.2473,-0.1616 0.3686,-0.2344 0.4735,-0.2844 0.6715,-0.5444 0.5933,-0.1117 -0.0846,0.0446 -0.1313,0.0481 -0.2173,0.0991l-0.5755 0.3473c-0.083,0.0438 -0.1223,0.0499 -0.2147,0.1048 -0.0757,0.045 -0.1161,0.0789 -0.1963,0.1205 -0.1313,0.0679 -0.2453,0.1299 -0.4007,0.2134 -0.2651,0.1425 -0.4988,0.2786 -0.8133,0.4371 -0.1007,0.0507 -0.148,0.0595 -0.219,0.0991 -0.1463,0.0819 -0.3374,0.2554 -0.6529,0.2877 -0.2816,0.029 -0.8038,-0.1765 -0.9982,-0.2873 -0.4635,-0.2656 -1.5934,-0.9739 -1.9414,-1.145 -0.1623,-0.0797 -0.1812,-0.2051 -0.1203,-0.38 0.0954,0.0057 0.1244,0.0651 0.1632,0.1105 0.0903,0.1037 0.3193,0.1879 0.5723,0.3736l0.3712 0.2558c0.0924,0.0659 0.2666,0.1524 0.3827,0.2237 0.3586,0.2204 1.3625,0.7974 1.8512,0.579 0.1743,-0.0781 0.3088,-0.1086 0.4647,-0.1875l0.001 -0.0004zm-2.2292 0.1425c0.2516,0.1102 0.6369,0.3396 1.0605,0.4266 0.68,0.1391 0.9272,-0.1502 1.2338,-0.2832 0.1402,-0.061 0.2442,-0.0629 0.3675,-0.1391 0.2058,-0.1269 1.06,-0.6071 1.3299,-0.6659 0.0036,-0.0091 0.6384,-0.3903 0.7817,-0.3929 0.0913,0.3441 -0.118,0.3602 -0.2352,0.4143 -0.1066,0.0496 -0.4126,0.2115 -0.5165,0.2142 -0.0059,0.0046 -0.0148,0.0103 -0.0184,0.0129 -0.1906,0.125 -0.3912,0.1784 -0.4825,0.2287 -0.0547,0.0301 -0.031,0.0256 -0.1109,0.0644 -0.0404,0.0198 -0.075,0.0313 -0.1192,0.0557 -1.175,0.6529 -1.123,0.6067 -0.2578,0.9444 0.1508,0.0588 0.333,0.1742 0.4957,0.215 0.4096,0.1029 0.8054,0.2321 1.3093,0.1906 0.01,0.0965 0.0091,0.2166 -0.0387,0.3091 -0.0032,0.0057 -0.0068,0.0129 -0.01,0.0179l-0.041 0.0552c-0.1922,-0.011 -0.7261,-0.2592 -0.9073,-0.3293 -0.1507,-0.0583 -0.3029,-0.0934 -0.462,-0.1628 -0.5015,-0.2176 -0.7912,-0.3197 -1.3582,-0.4737 -0.461,-0.1254 -0.871,-0.0122 -1.186,0.0324 -0.1606,0.0289 -0.2268,0.1299 -0.3844,0.133l-1.3777 0.8054c-0.1821,0.104 -0.3208,0.2321 -0.4253,0.239l-0.0329 -0.3698 0.6751 -0.2867c0.2126,-0.133 0.8453,-0.4967 1.0638,-0.5561 0.002,-0.0046 0.0083,-0.0099 0.0105,-0.0118l0.0688 -0.0846c0.0351,-0.0857 0.0042,-0.0594 -0.0102,-0.1361 -0.1422,-0.0614 -0.2613,-0.1951 -0.4336,-0.2687 -0.398,-0.17 -0.8106,-0.3866 -1.2437,-0.5302 -0.124,-0.0412 -0.1644,-0.0191 -0.2667,-0.0785l-0.0541 -0.4898c0.1428,0.0267 0.3726,0.2367 0.6158,0.3792l0.9597 0.5214 0 -0.0004zm2.3295 0.9602l2.4198 0.893 -0.0037 0.215c-0.1647,0.0099 -0.6531,-0.2325 -0.829,-0.3011 -0.2855,-0.112 -0.523,-0.1818 -0.8142,-0.2977l-1.2375 -0.4371c-0.3245,-0.1098 -0.5181,-0.2074 -0.8494,-0.0038l-0.6705 0.423c-0.1439,0.1018 -0.189,0.1166 -0.3297,0.1895l-0.8352 0.5142c-0.082,0.051 -0.0852,0.0541 -0.1487,0.1094 -0.0782,0.0682 -0.1679,0.1791 -0.3328,0.1856 -0.0562,-0.4066 0.1485,-0.3781 0.4578,-0.574 0.3139,-0.199 0.3084,-0.2058 0.6772,-0.388 0.5058,-0.2492 0.9529,-0.6521 1.4985,-0.707 0.4378,-0.0443 0.693,0.0488 0.9969,0.1787l0.0006 0.0004zm0.0667 0.4521l2.3805 0.8782 -0.0195 0.3834c-0.1366,0.0038 -0.325,-0.1941 -0.4505,-0.2619l-1.0331 -0.4696c-0.367,-0.1536 -1.4753,-0.5485 -1.7194,-0.5702 -0.4065,-0.0366 -0.7881,0.4525 -0.9508,0.4814 -0.0668,0.0847 -0.8533,0.7265 -0.997,0.7768 -0.0184,0.0751 -0.0588,0.0782 -0.1807,0.1586l-0.4247 0.3118c-0.0888,0.0636 -0.0714,0.1162 -0.2126,0.117 -0.1555,-0.6228 0.1633,-0.59 0.3293,-0.7223l0.2335 -0.151 0.081 -0.0785c0.0645,-0.0533 0.0178,-0.0065 0.0724,-0.0613 0.1512,-0.1525 0.2367,-0.1841 0.451,-0.3206 0.2047,-0.1303 0.4414,-0.3507 0.6814,-0.4105 0.2,-0.1524 0.576,-0.5035 0.9922,-0.3823 0.3827,0.1117 0.6505,0.2855 0.7671,0.321zm-1.6637 0.6776c0.0924,-0.064 0.1627,-0.1132 0.2472,-0.1807 0.5565,-0.4413 0.5607,-0.3202 0.9541,-0.2084 0.1553,0.0442 0.4823,0.1871 0.6231,0.2618 0.2668,0.1425 0.5508,0.1833 0.6294,0.2782 0.1093,-0.0026 0.2767,0.0869 0.389,0.1281 0.5115,0.1871 0.5215,0.2306 1.1373,0.417 -0.0053,0.0805 -0.0068,0.3568 -0.0782,0.423 0.0818,0.3194 -0.2495,0.1818 -0.3303,0.1075 -0.1749,-0.0389 -0.2919,-0.1044 -0.4253,-0.1871l-0.8217 -0.5741c-0.0573,-0.0419 -0.0844,-0.0454 -0.1501,-0.0865 -0.1817,-0.0743 -0.9771,-0.5568 -1.2201,-0.5672 -0.2352,-0.0103 -0.3706,0.1441 -0.4773,0.2009 -0.43,0.2305 -0.242,0.2229 -0.5643,0.4479 -0.105,0.0731 -0.1492,0.1117 -0.2374,0.186l-0.2388 0.1857c-0.1564,0.1482 -0.0944,0.1372 -0.3066,0.303 -0.0566,0.0446 -0.0551,0.0492 -0.1003,0.0938 -0.1427,0.1415 -0.3395,0.2447 -0.4772,0.3694 -0.1365,0.1243 -0.304,0.3495 -0.4671,0.324l-0.042 -0.4639c0.3507,-0.1639 0.1764,-0.058 0.5376,-0.3403 0.4336,-0.3389 1.0278,-0.8485 1.4185,-1.118l0.0006 0zm-2.2214 -2.282c0.0683,0.0084 1.1236,0.4578 1.1807,0.5268 0.083,0.0042 0.4401,0.1544 0.4924,0.2055 -0.0556,0.0651 -0.0686,0.0568 -0.1716,0.0906 -0.0746,0.0248 -0.0967,0.0363 -0.1686,0.0721 -0.0136,0.0072 -0.062,0.0313 -0.0783,0.0412l-0.2178 0.1232c-0.2083,0.0956 -0.536,0.301 -0.6079,0.309 -0.0631,0.0686 -0.1999,0.1377 -0.3255,0.1415 0.0153,-0.2779 -0.0053,-0.5287 -0.0074,-0.802 -0.0011,-0.152 -0.1075,-0.5645 -0.0949,-0.7081l-0.0011 0.0003zm6.0986 -0.2233c0.0635,-0.0759 0.0131,-0.0556 0.1386,-0.0942 0.0897,0.085 0.034,0.2965 0.031,0.4048 -0.0068,0.2321 0.0162,1.1816 -0.031,1.2609 -0.1623,0.0236 -0.0909,-0.0142 -0.2951,-0.0401 -0.1371,-0.0175 -0.1676,-0.0175 -0.2898,-0.0571 -0.3078,-0.0995 -1.3688,-0.3854 -1.4932,-0.4952 0.0489,-0.1288 0.2416,-0.1589 0.3833,-0.2271l0.6111 -0.2961c0.2022,-0.0899 0.389,-0.2238 0.6085,-0.2897 0.0241,-0.0347 0.0068,-0.0206 0.0651,-0.0564 0.0152,-0.0096 0.0756,-0.037 0.0992,-0.0473 0.0739,-0.0331 0.1212,-0.0613 0.1726,-0.0625l-0.0004 0zm-3.3185 -3.1037c-0.0663,0.0755 -0.0017,0.1357 0.0041,0.1883 0.1134,0.0354 0.136,0.0724 0.2846,0.051 0.167,-0.024 0.1307,-0.053 0.2541,-0.1022 -0.0252,-0.1337 -0.0918,-0.2492 -0.334,-0.2263 -0.073,0.0068 -0.1722,0.0476 -0.2088,0.0892zm0.9155 0.3545c-0.191,0.2656 -0.9125,0.4768 -1.2742,0.1253 -0.2033,-0.1974 -0.2651,-0.4844 -0.0614,-0.715 0.2656,-0.3015 0.7634,-0.2764 0.901,-0.1807 0.1894,0.0079 0.4462,0.1795 0.4115,0.3175 0.0882,0.0488 0.0619,-0.0042 0.0793,0.1205 0.0059,0.0434 -0.0152,0.2756 -0.0556,0.332l-0.0006 0.0004z"/>
 </g>
</svg>
