<?xml version="1.0" encoding="UTF-8"?>
<!DOCTYPE svg PUBLIC "-//W3C//DTD SVG 1.0//EN" "http://www.w3.org/TR/2001/REC-SVG-20010904/DTD/svg10.dtd">
<!-- Creator: CorelDRAW 2020 (64 Bit) -->
<svg enable-background="new 0 0 10 10" height="10" viewBox="0 0 10 10" width="10" xmlns="http://www.w3.org/2000/svg">
 <g id="Camada_x0020_1">
  <metadata id="CorelCorpID_0Corel-Layer"/>
  <path fill="#ffff4a" fill-opacity="param(fill-opacity) 204" stroke="param(outline)" stroke-opacity="param(outline-opacity) 204" stroke-width="param(outline-width)" d="M2.1146 6.5464l0 3.2995 1.8455 0 0 -1.3747c0,-0.3253 0.1778,-0.5695 0.4958,-0.7313 0.4341,-0.221 1.142,-0.0689 1.3553,0.4031 0.0406,0.0897 0.0714,0.2107 0.0714,0.3282l0 1.3747 1.8455 0 0 -3.2995c0,-0.0514 -0.105,-0.1042 -0.1478,-0.1344 -0.4857,-0.3429 -1.1261,-0.7696 -1.5866,-1.1074l-0.7129 -0.5001c-0.064,-0.0453 -0.1164,-0.0779 -0.1804,-0.1232 -0.0578,-0.0409 -0.1213,-0.0918 -0.1789,-0.1243 -0.0516,0.0289 -0.1178,0.0794 -0.1687,0.1168l-1.7669 1.2307c-0.0622,0.044 -0.1154,0.0851 -0.1763,0.1266 -0.1236,0.0842 -0.2324,0.163 -0.3597,0.2472 -0.0598,0.0395 -0.335,0.2165 -0.335,0.2681zm2.4652 -6.5464l0.6843 0.0003 -0.0004 1.2258 1.7106 0.0006 -0.0002 0.6843 -1.7106 -0.0006 -0.0013 1.688 -0.6817 -0.0001 -2.6195 1.8159c-0.0413,0.0272 -0.0849,0.0546 -0.1287,0.0858l-0.4722 0.3305c-0.101,0.0757 -0.4194,0.273 -0.4757,0.3438 0.0143,0.0447 0.1713,0.1958 0.2164,0.2385 0.0523,0.0493 0.2061,0.1848 0.2258,0.2468 0.0702,-0.0158 0.1725,-0.0963 0.2349,-0.142 0.0766,-0.0561 0.1465,-0.097 0.2215,-0.1532 0.1466,-0.11 0.2959,-0.1977 0.4421,-0.3074 0.0761,-0.057 0.1453,-0.0964 0.2214,-0.1533l1.3382 -0.9282c0.1535,-0.1023 1.0799,-0.7743 1.1367,-0.7743 0.0469,0 0.8556,0.5788 0.8954,0.6053l1.7909 1.2428c0.1467,0.1099 0.2959,0.1976 0.4422,0.3073 0.0621,0.0466 0.3897,0.2859 0.4662,0.3031 0.032,-0.1006 0.4116,-0.3889 0.4422,-0.4852 -0.0381,-0.0478 -0.1597,-0.1272 -0.2225,-0.1686l-0.7254 -0.5057c-0.0405,-0.0288 -0.0747,-0.0506 -0.1178,-0.0788l-1.5597 -1.0815c-0.0491,-0.0325 -0.0636,-0.0471 -0.1152,-0.081 -0.046,-0.0302 -0.0866,-0.0559 -0.128,-0.0864l-0.8276 -0.5739 -0.6843 -0.0002 0.0013 -1.688 -1.7104 -0.0005 0.0002 -0.6843 1.7104 0.0005 0.0004 -1.2259zm3.4558 9.8621l1.807 0 0 -1.6337c-0.143,-0.0322 -1.6963,-0.8495 -1.807,-0.8572l0 2.4908zm-8.0355 -1.6337l0 1.6337 1.807 0 0 -2.4908c-0.1149,0.0081 -1.6701,0.8265 -1.807,0.8572z"/>
 </g>
</svg>
