<?xml version="1.0" encoding="UTF-8"?>
<!DOCTYPE svg PUBLIC "-//W3C//DTD SVG 1.0//EN" "http://www.w3.org/TR/2001/REC-SVG-20010904/DTD/svg10.dtd">
<!-- Creator: CorelDRAW 2020 (64 Bit) -->
<svg enable-background="new 0 0 10 10" height="10" viewBox="0 0 10 10" width="10" xmlns="http://www.w3.org/2000/svg">
 <g id="Camada_x0020_1">
  <metadata id="CorelCorpID_0Corel-Layer"/>
  <rect fill="none" width="9.8425" height="9.8425"/>
  <path fill="param(fill) #9d1235" fill-opacity="param(fill-opacity)" stroke="none" stroke-opacity="none" stroke-width="none" fill-rule="nonzero" d="M3.2605 6.2692c0.1448,1.0195 0.3107,1.6436 1.1171,2.2527 0.0813,-1.2837 0.4848,-0.9519 0.6276,-2.5483 0.5893,0.9723 0.4745,1.9454 0.185,2.9178 0.5183,-0.4637 1.0925,-0.8461 1.8095,-2.9178l-0.1475 1.5508c0.4568,-1.1165 1.7591,-2.2248 -0.5258,-5.3461 0.2267,1.8102 -0.2383,2.0499 -0.4616,2.7792 -0.5258,-1.5508 -1.5609,-1.6559 -1.8191,-3.361 -0.3762,1.3781 0.1475,2.0383 0.1106,3.0469 -0.5265,-0.9321 -1.0488,-1.7576 -1.5507,-2.1052 0.4138,0.8344 -0.1264,1.8362 -0.3114,2.6488 -0.2643,1.1574 0.0936,1.9318 0.6808,2.2629 -0.0089,-0.564 0.1762,-1.0625 0.2861,-1.182l-0.0007 0.0014z"/>
  <path fill="param(fill) #9d1235" fill-opacity="param(fill-opacity)" stroke="none" stroke-opacity="none" stroke-width="none" fill-rule="nonzero" d="M4.6454 0c-0.5975,2.4269 0.4937,2.4057 1.0986,3.8314 0.4248,-2.1994 -0.8453,-1.7043 -1.0986,-3.8314z"/>
  <circle fill="none" fill-opacity="none" stroke="param(outline) #9d1235" stroke-opacity="param(outline-opacity)" stroke-width="param(outline-width) 0.4" cx="6.5736" cy="8.7794" r="1.0631"/>
 </g>
</svg>
