<?xml version="1.0" encoding="UTF-8"?>
<!DOCTYPE svg PUBLIC "-//W3C//DTD SVG 1.0//EN" "http://www.w3.org/TR/2001/REC-SVG-20010904/DTD/svg10.dtd">
<!-- Creator: CorelDRAW 2020 (64 Bit) -->
<svg enable-background="new 0 0 10 10" height="10" viewBox="0 0 10 10" width="10" xmlns="http://www.w3.org/2000/svg">
 <g id="Camada_x0020_1">
  <metadata id="CorelCorpID_0Corel-Layer"/>
  <path fill="#00007f" fill-opacity="param(fill-opacity) 80%" stroke="none" stroke-opacity="none" stroke-width="none" fill-rule="nonzero" d="M0.769 8.9326l0.5767 -0.0028 0 0.336 0.9612 0 0 -0.3406 0.5959 -0.0029 0 0.3434 0.3653 0c0.0658,0 0.2689,-0.2499 0.3608,-0.3313l0.0178 -0.0156 0.8497 -0.0039 -0.344 0.3509 0.4805 0 -0.0034 -0.3516 0.5994 -0.0029 0 0.3544 0.5575 0 0 -0.357 0.596 -0.0029 0 0.3598 0.5767 0 0 -0.3626 0.5767 -0.0027 0 0.3653 0.9612 0 0 -0.3699 0.5767 -0.0027 0 0.3725 0.1538 0c0.3788,0 0.3788,0.5767 0,0.5767l-8.6122 0c-0.1582,0 -0.2884,-0.1345 -0.2884,-0.2884 0,-0.2951 0.2857,-0.2883 0.4422,-0.2883l0 -0.3333z"/>
  <path fill="#00007f" fill-opacity="param(fill-opacity) 80%" stroke="none" stroke-opacity="none" stroke-width="none" fill-rule="nonzero" d="M0.769 8.9326l0.5767 -0.0028 0 -0.2407 0.9612 0 0 0.2362 0.5959 -0.0029 0 -0.0795c0.0929,-0.0248 0.8331,-0.8043 0.9179,-0.8891l0.1599 -0.1588 -0.8435 0.0103 -0.1515 0.1399c-0.0389,0.0328 -0.0417,0.0434 -0.0829,0.071l0 -0.2079 -0.5959 0.0073 0 0.2968 -0.9612 0 0 -0.2849 -0.5767 0.0071 0 1.098zm2.8777 -0.0137l0.8497 -0.0039 0.1318 -0.1344 0.0013 0.1338 0.5994 -0.0029 0 -0.703c0,-0.0636 0.2132,-0.242 0.2644,-0.2931 0.0381,-0.0381 0.086,-0.0901 0.1349,-0.1405l-0.8268 0.0101 -0.5866 0.5821c-0.1552,0.1552 -0.3027,0.3139 -0.4629,0.4598l-0.1052 0.0919zm2.1397 -0.01l0.596 -0.0029 0 -1.1404 -0.596 0.0073 0 1.1359zm1.1726 -0.0056l0.5767 -0.0027 0 -0.2115 0.9612 0 0 0.2069 0.5767 -0.0027 0 -1.1607 -0.5767 0.0071 0 0.3727 -0.9612 0 0 -0.3609 -0.5767 0.0071 0 1.1447z"/>
  <path fill="#00007f" fill-opacity="param(fill-opacity) 80%" stroke="none" stroke-opacity="none" stroke-width="none" fill-rule="nonzero" d="M0.769 7.8345l0.5767 -0.0071 0 -0.2918 0.9612 0 0 0.28 0.5959 -0.0073 0 -1.0803 -0.5959 0.0022 0 0.2287 -0.9612 0 0 -0.2253 -0.5767 0.0022 0 1.0987zm2.3681 -0.0291l0.8435 -0.0103 1.0832 -1.0748 -0.8342 0.0031c-0.0616,0.0637 -0.1259,0.127 -0.1734,0.1588l0 -0.1582 -0.5767 0.0021 0 0.7136c0,0.0643 -0.2219,0.2506 -0.274,0.3028l-0.0684 0.0631zm1.6643 -0.0204l0.8268 -0.0101c0.0558,-0.0574 0.1128,-0.1128 0.1582,-0.1431l0 0.1411 0.596 -0.0073 0 -0.7105c0,-0.0662 0.198,-0.2074 0.2836,-0.2932 0.0142,-0.0142 0.0296,-0.0303 0.0462,-0.0475l-0.8345 0.003 -1.0761 1.0677zm2.1576 -0.0265l0.5767 -0.0071 0 -0.2158 0.9612 0 0 0.204 0.5767 -0.0071 0 -1.0268 -0.5767 0.0021 0 0.2511 -0.9612 0 0 -0.2476 -0.5767 0.0022 0 1.0451z"/>
  <path fill="#00007f" fill-opacity="param(fill-opacity) 80%" stroke="none" stroke-opacity="none" stroke-width="none" fill-rule="nonzero" d="M0.769 6.7358l0.5767 -0.0022 0 -0.3514 0.9612 0 0 0.3479 0.5959 -0.0022 0 -1.1775 -0.5959 0.0048 0 0.2501 -0.9612 0 0 -0.2422 -0.5767 0.0047 0 1.1678zm2.7105 -0.0098l0.5767 -0.0021 0 -1.1828 -0.5767 0.0047 0 1.1801zm0.7501 -0.0027l0.8342 -0.0031 1.2065 -1.1971 -0.8564 0.007 -0.1803 0.1841 -0.0019 -0.1826 -0.5988 0.0048 0 0.7497c0,0.0643 -0.2218,0.2506 -0.2739,0.3028 -0.0356,0.0356 -0.0817,0.0851 -0.1293,0.1344zm1.6478 -0.006l0.8345 -0.003c0.078,-0.0818 0.177,-0.1892 0.2469,-0.236l0 0.2351 0.5767 -0.0022 0 -0.2714c0,-0.0443 0.0134,-0.0577 0.0577,-0.0577l0.9035 0 0 0.3256 0.5767 -0.0021 0 -1.2056 -0.5767 0.0047 0 0.3006 -0.9612 0 0 -0.2927 -0.5736 0.0046c0.0005,0.1749 -0.0224,0.1437 -0.2094,0.3317l-0.8751 0.8682z"/>
  <path fill="#00007f" fill-opacity="param(fill-opacity) 80%" stroke="none" stroke-opacity="none" stroke-width="none" fill-rule="nonzero" d="M0.769 5.568l0.5767 -0.0047 0 -0.3153 0.9612 0 0 0.3074 0.5959 -0.0048 0 -0.3026 0.5768 0 0 0.2978 0.5767 -0.0047 0 -0.2931 0.5767 0 0 0.2884 0.5988 -0.0048 -0.0029 -0.2836 0.4613 0 -0.2763 0.2821 0.8564 -0.007 0.0592 -0.0588c0.2635,-0.2636 0.1142,-0.2163 0.6295,-0.2163 0,0.1254 0.003,0.2095 0.0031,0.2694l0.5736 -0.0046 0 -0.2648 0.9612 0 0 0.2569 0.5767 -0.0047 0 -1.1548 -0.5767 0.0007 0 0.3061 -7.1512 0 0 -0.2972 -0.5767 0.0008 0 1.2123z"/>
  <polygon fill="#00007f" fill-opacity="param(fill-opacity) 80%" stroke="none" stroke-opacity="none" stroke-width="none" fill-rule="nonzero" points="0.769,4.3557 1.3457,4.3549 1.3457,4.0947 8.4969,4.0947 8.4969,4.3461 9.0735,4.3454 9.0735,3.2893 8.4969,3.2893 8.4969,3.4987 1.3457,3.4987 1.3457,3.2893 0.769,3.2893 "/>
  <path fill="#00007f" fill-opacity="param(fill-opacity) 80%" stroke="param(outline)" stroke-opacity="param(outline-opacity)" stroke-width="param(outline-width)" fill-rule="nonzero" d="M0.769 3.2893l0.5767 0 0 -0.348 7.1512 0 0 0.348 0.5767 0 0 -0.348c0.0791,0.053 0.3819,0.2307 0.4806,0.2307 0.1362,0 0.2649,-0.1096 0.2884,-0.2452l0 -0.0878c-0.0155,-0.0892 -0.0799,-0.1817 -0.2173,-0.2572l-1.095 -0.6121 -1.2092 -0.0067c0.0707,0.0411 0.1308,0.0776 0.1578,0.0931 0.0809,0.0467 0.1673,0.093 0.2492,0.1353 0.0557,0.0287 0.2209,0.1145 0.2498,0.1538l-6.1132 0c0.0371,-0.0506 0.0577,-0.0478 0.1154,-0.0769 0.1043,-0.0527 0.3695,-0.2112 0.5876,-0.332l-1.1829 -0.0066c-0.0776,0.0431 -0.155,0.0857 -0.2313,0.1271l-0.7653 0.4267c-0.1356,0.0819 -0.3882,0.1755 -0.3882,0.3615 0,0.2949 0.2136,0.4186 0.5374,0.2298 0.0744,-0.0433 0.1605,-0.0861 0.2316,-0.1337l0 0.348z"/>
  <path fill="#00007f" fill-opacity="param(fill-opacity) 80%" stroke="none" stroke-opacity="none" stroke-width="none" fill-rule="nonzero" d="M1.3847 1.9298l1.1829 0.0066c0.1506,-0.0833 0.2787,-0.1486 0.3159,-0.1486l4.0754 0c0.0525,0 0.2266,0.0963 0.3621,0.1752l1.2092 0.0067 -1.0752 -0.6011c-0.2039,-0.1233 -0.4054,-0.2259 -0.6175,-0.3436l-0.1816 -0.102 -1.3049 -0.0589c0.0836,0.0485 0.1562,0.0908 0.1918,0.1098l0.3781 0.2178 -1.9992 0c0.0445,-0.0386 0.3668,-0.2184 0.6337,-0.3635l-1.1131 -0.0502 -1.6726 0.9338c-0.1251,0.072 -0.255,0.1458 -0.3848,0.2179z"/>
  <path fill="#00007f" fill-opacity="param(fill-opacity) 80%" stroke="none" stroke-opacity="none" stroke-width="none" fill-rule="nonzero" d="M3.4422 0.7781l1.1131 0.0502c0.1955,-0.1063 0.3611,-0.194 0.3659,-0.194 0.0327,0 0.2551,0.1284 0.4297,0.2298l1.3049 0.0589 -0.4339 -0.2437c-0.109,-0.0553 -0.2004,-0.1143 -0.3078,-0.1729 -0.1362,-0.0744 -0.8698,-0.5064 -0.9545,-0.5064 -0.2318,0 -0.5052,0.2202 -0.7114,0.3267 -0.1012,0.0523 -0.2067,0.1186 -0.3075,0.1731l-0.4986 0.2783z"/>
  <path fill="none" stroke="param(outline)" stroke-opacity="param(outline-opacity) 80%" stroke-width="param(outline-width)" d="M6.6559 0.923l-0.4339 -0.2437c-0.109,-0.0553 -0.2004,-0.1143 -0.3078,-0.1729 -0.1362,-0.0744 -0.8698,-0.5064 -0.9545,-0.5064 -0.2318,0 -0.5052,0.2202 -0.7114,0.3267 -0.1012,0.0523 -0.2067,0.1186 -0.3075,0.1731l-0.4986 0.2783 -1.6726 0.9338c-0.1251,0.072 -0.255,0.1458 -0.3848,0.2179 -0.0776,0.0431 -0.155,0.0857 -0.2313,0.1271l-0.7653 0.4267c-0.1356,0.0819 -0.3882,0.1755 -0.3882,0.3615 0,0.2949 0.2136,0.4186 0.5374,0.2298 0.0744,-0.0433 0.1605,-0.0861 0.2316,-0.1337l0 0.348 0 1.0664 0 1.2123 0 1.1678 0 1.0987 0 1.098 0 0.3333c-0.1565,0 -0.4422,-0.0068 -0.4422,0.2883 0,0.1538 0.1302,0.2884 0.2884,0.2884l8.6122 0c0.3788,0 0.3788,-0.5767 0,-0.5767l-0.1538 0 0 -0.3725 0 -1.1607 0 -1.0268 0 -1.2056 0 -1.1548 0 -1.0561 0 -0.348c0.0791,0.053 0.3819,0.2307 0.4806,0.2307 0.1362,0 0.2649,-0.1096 0.2884,-0.2452l0 -0.0878c-0.0155,-0.0892 -0.0799,-0.1817 -0.2173,-0.2572l-1.095 -0.6121 -1.0752 -0.6011c-0.2039,-0.1233 -0.4054,-0.2259 -0.6175,-0.3436l-0.1816 -0.102z"/>
 </g>
</svg>
