<?xml version="1.0" encoding="UTF-8"?>
<!DOCTYPE svg PUBLIC "-//W3C//DTD SVG 1.0//EN" "http://www.w3.org/TR/2001/REC-SVG-20010904/DTD/svg10.dtd">
<!-- Creator: CorelDRAW 2020 (64 Bit) -->
<svg enable-background="new 0 0 10 10" height="10" viewBox="0 0 10 10" width="10" xmlns="http://www.w3.org/2000/svg">
 <g id="Camada_x0020_1">
  <metadata id="CorelCorpID_0Corel-Layer"/>
  <path fill="param(fill) #9d1235" fill-opacity="param(fill-opacity)" stroke="none" stroke-opacity="none" stroke-width="none" d="M2.077 4.5888l0.7629 0.0046c0.1204,0.209 0.3974,0.411 0.8111,0.4738 0.2878,0.0435 0.6524,-0.1268 0.746,-0.3806 0.0104,-0.0282 0.0198,-0.0561 0.0282,-0.0836l0.9942 0.0061c0.008,0.0254 0.0167,0.0513 0.0264,0.0775 0.0937,0.2537 0.4583,0.4241 0.7461,0.3806 0.3969,-0.0602 0.6681,-0.2487 0.7958,-0.4485l0.8029 0.0048c-0.0021,0.4673 -0.0606,0.9333 -0.3705,1.2456 -0.1249,0.1258 -0.3295,0.2061 -0.4481,0.3313 -0.0273,0.0287 -0.2136,0.1663 -0.3064,0.2359 1.8739,1.6482 2.1121,1.914 2.1987,1.966 0.1473,0.0386 0.2651,-0.0283 0.4221,-0.0636 0.1506,-0.0352 0.517,0.1303 0.5498,0.296 0.0294,0.0493 -0.0393,0.3311 -0.2357,0.4968 -0.265,0.0421 -0.2944,-0.1373 -0.5299,0 -0.1734,0.1586 -0.1703,0.4333 -0.324,0.6023 -0.0916,0.1024 -0.3895,0.1621 -0.4908,0.0425 -0.1342,-0.1129 0.0557,-0.4475 0.0295,-0.6448 0,0 -0.1428,-0.5377 -1.8566,-2.0527 -0.0075,0.085 -0.0128,0.1796 -0.0197,0.2891 -0.0115,0.1832 -0.094,0.4922 -0.1776,0.6523 -0.0404,0.0778 -0.1366,0.1854 -0.1341,0.2393 0.0051,0.1095 -0.2284,0.2872 -0.3023,0.3431 -0.274,0.208 -0.514,0.2536 -0.8612,0.2542 -0.3471,-0.0006 -0.5871,-0.0463 -0.8611,-0.2542 -0.0738,-0.0559 -0.3076,-0.2336 -0.3024,-0.3431 0.0026,-0.0538 -0.0937,-0.1615 -0.1341,-0.2393 -0.0836,-0.16 -0.166,-0.4691 -0.1776,-0.6523 -0.0074,-0.1181 -0.0131,-0.2191 -0.0216,-0.3094 -1.7352,1.5303 -1.8795,2.0729 -1.8795,2.0729 -0.0262,0.1972 0.1637,0.5318 0.0294,0.6447 -0.1014,0.1197 -0.3991,0.0599 -0.4907,-0.0424 -0.1538,-0.169 -0.1505,-0.4438 -0.3239,-0.6023 -0.2356,-0.1374 -0.2651,0.0421 -0.5301,0 -0.1963,-0.1656 -0.2651,-0.4474 -0.2356,-0.4968 0.0328,-0.1656 0.3992,-0.3312 0.5498,-0.296 0.157,0.0352 0.2748,0.1022 0.422,0.0636 0.0869,-0.0522 0.3258,-0.3187 2.2101,-1.9761 -0.0962,-0.0719 -0.2669,-0.1985 -0.2929,-0.2259 -0.1187,-0.1252 -0.3233,-0.2054 -0.4481,-0.3313 -0.3175,-0.3201 -0.3712,-0.8014 -0.3706,-1.2803z"/>
  <path fill="param(fill) #9d1235" fill-opacity="param(fill-opacity)" stroke="none" stroke-opacity="none" stroke-width="none" d="M2.077 4.5888l0.7629 0.0046c-0.0662,-0.1151 -0.0849,-0.2323 -0.0528,-0.3294 0.1055,-0.3184 0.3227,-0.8456 0.6282,-0.8456 0.6452,-0.0409 1.2518,0.3923 1.0098,1.1846l0.9942 0.0061c-0.2469,-0.7963 0.3612,-1.2318 1.008,-1.1907 0.3056,0 0.5227,0.5273 0.6282,0.8455 0.0346,0.1043 0.0105,0.2317 -0.068,0.3548l0.8029 0.0048c0.0012,-0.2619 -0.0154,-0.5243 -0.0154,-0.7603 0,-0.0906 -0.0554,-0.3954 -0.1177,-0.4626 -0.15,-0.1623 -0.299,-0.3171 -0.4651,-0.4586 1.5025,-1.3285 1.5915,-1.4536 1.6719,-1.5017 0.1473,-0.0388 0.2651,0.0281 0.4221,0.0634 0.1506,0.0351 0.517,-0.1303 0.5498,-0.296 0.0293,-0.0493 -0.0393,-0.3312 -0.2357,-0.4968 -0.265,-0.0422 -0.2944,0.1375 -0.5299,0 -0.1734,-0.1585 -0.1703,-0.4333 -0.3241,-0.6024 -0.0915,-0.1022 -0.3894,-0.1621 -0.4907,-0.0423 -0.1342,0.1128 0.0557,0.4474 0.0295,0.6447 0,0 -0.1302,0.4896 -1.6301,1.85 -0.1429,-0.0822 -0.3061,-0.1476 -0.6153,-0.2242 -0.1553,-0.0521 -1.8562,-0.068 -2.212,0 -0.3202,0.0792 -0.4838,0.1467 -0.6303,0.233 -1.5091,-1.3669 -1.6399,-1.8588 -1.6399,-1.8588 -0.0262,-0.1971 0.1637,-0.5319 0.0295,-0.6447 -0.1015,-0.1198 -0.3992,-0.0598 -0.4908,0.0423 -0.1538,0.1691 -0.1505,0.4439 -0.3239,0.6024 -0.2356,0.1375 -0.2651,-0.0422 -0.5301,0 -0.1963,0.1656 -0.2651,0.4474 -0.2356,0.4968 0.0328,0.1656 0.3993,0.3311 0.5498,0.296 0.157,-0.0352 0.2749,-0.1022 0.422,-0.0634 0.0795,0.0474 0.2195,0.2161 1.6844,1.5124 -0.161,0.1386 -0.3064,0.2895 -0.4528,0.4479 -0.0622,0.0672 -0.1176,0.3719 -0.1176,0.4625 0,0.2256 -0.0152,0.4753 -0.0155,0.7256z"/>
  <path fill="none" fill-opacity="none" stroke="param(outline) #4b081a" stroke-opacity="param(outline-opacity)" stroke-width="param(outline-width) 0.0" d="M7.7905 4.6235c0.0012,-0.2619 -0.0154,-0.5243 -0.0154,-0.7603 0,-0.0906 -0.0554,-0.3954 -0.1177,-0.4626 -0.15,-0.1623 -0.299,-0.3171 -0.4651,-0.4586 1.5025,-1.3285 1.5915,-1.4536 1.6719,-1.5017 0.1473,-0.0388 0.2651,0.0281 0.4221,0.0634 0.1506,0.0351 0.517,-0.1303 0.5498,-0.296 0.0293,-0.0493 -0.0393,-0.3312 -0.2357,-0.4968 -0.265,-0.0422 -0.2944,0.1375 -0.5299,0 -0.1734,-0.1585 -0.1703,-0.4333 -0.3241,-0.6024 -0.0915,-0.1022 -0.3894,-0.1621 -0.4907,-0.0423 -0.1342,0.1128 0.0557,0.4474 0.0295,0.6447 0,0 -0.1302,0.4896 -1.6301,1.85 -0.1429,-0.0822 -0.3061,-0.1476 -0.6153,-0.2242 -0.1553,-0.0521 -1.8562,-0.068 -2.212,0 -0.3202,0.0792 -0.4838,0.1467 -0.6303,0.233 -1.5091,-1.3669 -1.6399,-1.8588 -1.6399,-1.8588 -0.0262,-0.1971 0.1637,-0.5319 0.0295,-0.6447 -0.1015,-0.1198 -0.3992,-0.0598 -0.4908,0.0423 -0.1538,0.1691 -0.1505,0.4439 -0.3239,0.6024 -0.2356,0.1375 -0.2651,-0.0422 -0.5301,0 -0.1963,0.1656 -0.2651,0.4474 -0.2356,0.4968 0.0328,0.1656 0.3993,0.3311 0.5498,0.296 0.157,-0.0352 0.2749,-0.1022 0.422,-0.0634 0.0795,0.0474 0.2195,0.2161 1.6844,1.5124 -0.161,0.1386 -0.3064,0.2895 -0.4528,0.4479 -0.0622,0.0672 -0.1176,0.3719 -0.1176,0.4625 0,0.2256 -0.0152,0.4753 -0.0155,0.7256 -0.0006,0.4789 0.0531,0.9602 0.3706,1.2803 0.1248,0.1259 0.3294,0.2061 0.4481,0.3313 0.026,0.0274 0.1968,0.1539 0.2929,0.2259 -1.8844,1.6574 -2.1232,1.9239 -2.2101,1.9761 -0.1472,0.0386 -0.2651,-0.0283 -0.422,-0.0636 -0.1506,-0.0352 -0.517,0.1303 -0.5498,0.296 -0.0294,0.0493 0.0394,0.3311 0.2356,0.4968 0.2651,0.0421 0.2945,-0.1374 0.5301,0 0.1734,0.1585 0.1701,0.4333 0.3239,0.6023 0.0916,0.1024 0.3894,0.1621 0.4907,0.0424 0.1343,-0.1129 -0.0556,-0.4474 -0.0294,-0.6447 0,0 0.1443,-0.5426 1.8795,-2.0729 0.0085,0.0903 0.0142,0.1912 0.0216,0.3094 0.0115,0.1832 0.094,0.4922 0.1776,0.6523 0.0404,0.0778 0.1366,0.1854 0.1341,0.2393 -0.0052,0.1095 0.2285,0.2872 0.3024,0.3431 0.274,0.208 0.514,0.2536 0.8611,0.2542 0.3472,-0.0006 0.5872,-0.0463 0.8612,-0.2542 0.0738,-0.0559 0.3074,-0.2336 0.3023,-0.3431 -0.0026,-0.0538 0.0937,-0.1615 0.1341,-0.2393 0.0836,-0.16 0.166,-0.4691 0.1776,-0.6523 0.0069,-0.1094 0.0122,-0.204 0.0197,-0.2891 1.7138,1.515 1.8566,2.0527 1.8566,2.0527 0.0262,0.1972 -0.1637,0.5319 -0.0295,0.6448 0.1014,0.1196 0.3992,0.0598 0.4908,-0.0425 0.1537,-0.169 0.1506,-0.4437 0.324,-0.6023 0.2355,-0.1373 0.265,0.0421 0.5299,0 0.1965,-0.1656 0.2652,-0.4474 0.2357,-0.4968 -0.0328,-0.1656 -0.3992,-0.3312 -0.5498,-0.296 -0.1571,0.0352 -0.2748,0.1022 -0.4221,0.0636 -0.0866,-0.0521 -0.3248,-0.3178 -2.1987,-1.966 0.0928,-0.0696 0.2791,-0.2072 0.3064,-0.2359 0.1186,-0.1252 0.3232,-0.2055 0.4481,-0.3313 0.3098,-0.3123 0.3684,-0.7782 0.3705,-1.2456z"/>
 </g>
</svg>
