<?xml version="1.0" encoding="UTF-8"?>
<!DOCTYPE svg PUBLIC "-//W3C//DTD SVG 1.0//EN" "http://www.w3.org/TR/2001/REC-SVG-20010904/DTD/svg10.dtd">
<!-- Creator: CorelDRAW 2020 (64 Bit) -->
<svg enable-background="new 0 0 10 10" height="10" viewBox="0 0 10 10" width="10" xmlns="http://www.w3.org/2000/svg">
 <g id="Camada_x0020_1">
  <metadata id="CorelCorpID_0Corel-Layer"/>
  <path fill="param(fill)" fill-opacity="param(fill-opacity) 204" stroke="param(outline)" stroke-opacity="param(outline-opacity)" stroke-width="param(outline-width) 0" d="M2.5375 0.367c0,0.1307 -0.0009,0.1855 0.0577,0.3077 -0.063,0.0146 -0.1209,0.0478 -0.1721,0.0777 -0.5476,0.3197 -0.4002,0.222 -0.888,0.6115 -0.0496,0.0396 -0.0811,0.0771 -0.1269,0.1229 -0.54,0.5404 -0.9208,1.1123 -1.1414,1.8769 -0.0385,0.1334 -0.0673,0.2455 -0.0985,0.4011 -0.0906,0.4513 -0.1134,0.9274 -0.0471,1.3832 0.0266,0.1827 0.037,0.421 0.2179,0.532 0.3563,0.2183 0.6138,-0.1114 1.0453,-0.3339 0.1289,-0.0665 0.251,-0.1453 0.3843,-0.2116 0.6221,-0.3093 0.9836,-0.4844 1.6368,-0.7469 0.0861,-0.0345 0.3678,-0.1505 0.4394,-0.1565 0.0056,0.0674 0.041,0.1588 0.0658,0.2226 0.032,0.0825 0.0518,0.1397 0.0807,0.2268l0.6224 1.7806c0.0565,0.1417 0.0972,0.3003 0.1537,0.4421l0.233 0.6706c0.0244,0.073 0.0675,0.1477 0.0747,0.2329l-1.1986 -0.4739c-0.2956,-0.0872 -0.3525,-0.1134 -0.6673,-0.1784 -0.9393,-0.1942 -1.8712,-0.0536 -2.56,0.5134 -0.2633,0.2167 -0.2633,0.2256 -0.5004,0.4607 -0.0861,0.0853 -0.1487,0.1664 -0.1487,0.3319l0 0.9611c0,0.1945 0.2072,0.3844 0.4037,0.3844l9.035 0c0.1957,0 0.4037,-0.182 0.4037,-0.3844l0 -0.6535c0,-0.1526 -0.0984,-0.2674 -0.1924,-0.3267 -0.1378,-0.0869 -0.2283,-0.0746 -0.421,-0.056 -0.7427,0.0716 -1.7509,0.1512 -2.4856,-0.0169l-0.5528 -0.1396c-0.0751,-0.0309 -0.061,-0.0481 -0.0899,-0.1406 -0.0378,-0.1217 -0.0818,-0.2267 -0.1199,-0.3415 -0.3925,-1.1826 -0.8712,-2.4319 -1.2639,-3.6189 -0.023,-0.0695 -0.0512,-0.1258 -0.065,-0.1849 0.0669,-0.0321 0.1626,-0.0579 0.2458,-0.081 0.0822,-0.0227 0.1703,-0.0517 0.2665,-0.0794 0.5859,-0.1693 1.6759,-0.4287 2.2734,-0.4948 0.2907,-0.032 0.652,-0.0332 0.7944,-0.2437 0.2137,-0.3156 -0.0494,-0.6095 -0.2585,-0.9233 -0.0505,-0.0757 -0.0882,-0.1312 -0.1453,-0.2006 -0.1499,-0.1823 -0.3212,-0.3813 -0.4996,-0.5386l-0.1884 -0.1576c-0.0727,-0.0542 -0.1285,-0.0957 -0.198,-0.1481 -0.3081,-0.2325 -0.7578,-0.4611 -1.1439,-0.5861 -0.7943,-0.2571 -1.5796,-0.2933 -2.3961,-0.1031 -0.1474,-0.6328 -0.8651,-0.3773 -0.8651,-0.0193z"/>
 </g>
</svg>
