<?xml version="1.0" encoding="UTF-8"?>
<!DOCTYPE svg PUBLIC "-//W3C//DTD SVG 1.0//EN" "http://www.w3.org/TR/2001/REC-SVG-20010904/DTD/svg10.dtd">
<!-- Creator: CorelDRAW 2020 (64 Bit) -->
<svg enable-background="new 0 0 10 10" height="10" viewBox="0 0 10 10" width="10" xmlns="http://www.w3.org/2000/svg">
 <g id="Camada_x0020_1">
  <metadata id="CorelCorpID_0Corel-Layer"/>
  <rect fill="none" width="9.8425" height="9.8425"/>
  <path fill="#0ea554" fill-opacity="param(fill-opacity)" stroke="none" stroke-opacity="none" stroke-width="none" fill-rule="nonzero" d="M3.3445 0.6286c-0.0174,0.028 -0.205,0.1174 -0.2532,0.1482 -0.091,0.0583 -0.1654,0.1121 -0.2514,0.1666 -0.0537,0.0449 -0.1154,0.0897 -0.1741,0.1379 -0.0512,0.0421 -0.11,0.0978 -0.1639,0.1341 0.0186,-0.0235 0.0335,-0.039 0.047,-0.0692 -0.0196,0.008 -0.039,0.015 -0.0525,0.0242l-0.0426 0.0434c0.0257,0.0323 0.0128,0.1122 0.0124,0.1549 -0.0019,0.181 0.0056,0.136 0.0955,0.2207 0.0286,0.0271 0.0451,0.0553 0.0708,0.0869 0.1639,0.2018 0.1917,0.0583 0.1808,0.4461 -0.0577,0.0525 -0.0714,0.0673 -0.1266,0.1267l-0.2183 0.306c-0.0705,0.109 -0.1196,0.2698 -0.2035,0.3155 -0.0515,0.0281 -0.1442,0.0556 -0.1936,0.0331 -0.0513,-0.0233 -0.2989,-0.151 -0.3231,-0.1753 -0.0526,-0.0126 -0.0605,-0.0329 -0.1094,-0.0282 -0.0417,0.0039 -0.0424,0.0201 -0.0969,0.0189 -0.0182,0.0177 0.003,0.0022 -0.0242,0.0168 -0.0542,0.0291 -0.0655,0.0087 -0.1375,0.0674 0.029,0.0298 -0.0215,0.041 -0.0491,0.1653l-0.171 0.5904c-0.016,0.0859 -0.0826,0.5693 -0.0796,0.6653 0.0069,0.2177 -0.0104,0.1393 0.1197,0.2656 0.1226,0.1192 0.0182,0.0731 0.2933,0.0814 0.3066,0.0093 0.2241,0.0049 0.3781,0.1339 0.1296,0.1084 0.0056,0.0664 0.113,0.3948 0.0417,0.1277 0.0624,0.2799 0.0987,0.4126 0.0219,0.08 0.0434,0.1107 0.0125,0.1872 -0.0659,0.1633 -0.0926,0.1854 -0.2358,0.2602 -0.0471,0.0247 -0.1374,0.0512 -0.1915,0.0697 -0.078,0.0266 -0.112,0.0366 -0.1712,0.1309 -0.0816,0.1302 -0.0184,0.182 0.0396,0.3146 0.0257,0.059 0.0486,0.1286 0.0759,0.1829 0.0705,0.1405 0.3281,0.5685 0.4279,0.6953l0.1786 0.2127c0.1217,0.1488 0.1046,0.1519 0.369,0.1411l0.2586 -0.2648c0.0296,-0.0233 0.0268,-0.0188 0.0502,-0.0406 0.0236,-0.0219 0.0171,-0.027 0.0563,-0.0391 0.0839,0.0001 0.2118,-0.0182 0.2685,0.0222 0.0446,0.0319 0.1005,0.1048 0.1378,0.1495 0.0415,0.0497 0.1674,0.1776 0.22,0.2115 0.0896,0.0577 0.2175,0.1037 0.2948,0.1488 0.0426,0.0249 0.0534,0.1068 0.0825,0.1979 0.0269,0.0846 -0.0064,0.1228 -0.0411,0.2008 -0.128,0.2875 -0.1523,0.2645 -0.0862,0.4356 0.0107,0.0278 0.0201,0.0732 0.04,0.1044 0.0247,0.0387 0.0248,0.0258 0.0946,0.0525 0.3654,0.1404 0.4766,0.2026 0.8936,0.2771 0.0936,0.0167 0.4595,0.0484 0.5047,0.0832 0.1081,-0.0282 0.0681,-0.0184 0.1991,-0.1449 0.0982,-0.0949 0.0033,-0.1975 0.0478,-0.2895 -0.0102,-0.0494 -0.0102,-0.1076 -0.0115,-0.1682 -0.0028,-0.1381 0.0283,-0.1116 0.095,-0.1803 0.0156,-0.0161 0.0283,-0.038 0.0414,-0.0501 0.0336,-0.0309 0.0865,-0.0171 0.1525,-0.0168 0.2547,0.001 0.3781,-0.0613 0.622,-0.1194 0.1497,-0.0356 0.1317,-0.011 0.2602,0.0457 0.164,0.0723 0.1332,0.2878 0.2426,0.4872 0.0315,0.0576 0.203,0.0868 0.2069,0.144 0.0034,-0.0019 0.0083,-0.0088 0.0102,-0.0059 0.009,0.013 0.0149,-0.0085 0.0208,-0.0119 0.0297,-0.017 -0.0096,0.0031 0.0324,-0.0185 0.0207,-0.0367 0.1944,-0.1341 0.2459,-0.1712 0.0784,-0.0565 0.1775,-0.1272 0.2592,-0.1719 0.071,-0.0624 0.6739,-0.4425 0.6841,-0.4649 0.003,-0.0566 0.0054,-0.1544 0.0015,-0.2097 -0.0052,-0.0742 -0.1271,-0.1805 -0.1824,-0.2379 -0.1398,-0.1449 -0.144,-0.0946 -0.1487,-0.2693 -0.0045,-0.1666 -0.0247,-0.1495 0.1572,-0.365 0.0379,-0.0449 0.0237,-0.0216 0.0691,-0.0512 -0.0263,-0.0199 -0.0201,0.0117 -0.0007,-0.0363 0.0003,-0.0008 0.0302,-0.0466 0.0312,-0.048 0.0218,-0.0332 0.0462,-0.0645 0.0588,-0.1017 0.0445,-0.072 0.0823,-0.1374 0.1196,-0.2149 0.0337,-0.0697 0.0123,-0.0502 0.094,-0.0771 0.0304,-0.01 0.0913,-0.0351 0.1173,-0.0404 0.0651,-0.0133 0.3677,0.1566 0.4248,0.2021l0.1137 -0.0199c0.0028,-0.0024 0.0067,-0.0049 0.0089,-0.0063l0.0562 -0.0267c0.1442,-0.0512 0.0634,-0.0718 0.1263,-0.1362 -0.0007,-0.0543 0.0505,-0.1958 0.0689,-0.2569 0.0244,-0.081 0.0423,-0.1794 0.0619,-0.2554 0.01,-0.0584 0.0221,-0.1175 0.0314,-0.1723 0.0081,-0.0477 0.0061,-0.1205 0.0329,-0.149l0.0084 -0.1486 0.0229 -0.3169c0.0022,-0.073 -0.0156,-0.0833 -0.0487,-0.128 -0.0254,-0.0343 -0.0541,-0.0767 -0.0746,-0.0997l-0.0072 -0.0252c-0.0202,0.0032 -0.0143,0.0069 -0.0143,-0.0149 -0.0454,-0.058 -0.1703,-0.0337 -0.2418,-0.0404 -0.2446,-0.0309 -0.1933,0.0478 -0.3452,-0.1144 -0.0578,-0.0618 -0.0638,-0.0438 -0.0753,-0.1448 -0.0074,-0.0656 -0.0218,-0.1582 -0.0229,-0.2231 -0.0187,-0.0532 -0.0428,-0.1783 -0.0368,-0.2343 -0.0023,-0.0029 -0.0046,-0.0113 -0.0054,-0.0094l-0.0164 -0.0401c-0.0485,-0.1697 -0.0945,-0.2791 -0.0344,-0.3815 0.0161,-0.0276 -0.0041,-0.0035 0.0184,-0.0245 -0.0013,-0.0743 0.0214,-0.0433 0.1636,-0.1152 0.2714,-0.1371 0.2754,-0.0865 0.3733,-0.3486 0.0289,-0.0775 0.0015,-0.0446 -0.0014,-0.1159l-0.0406 -0.0565c-0.0149,-0.0279 -0.0211,-0.0419 -0.0329,-0.0707 -0.0219,-0.0534 -0.0423,-0.0961 -0.0642,-0.1444 -0.042,-0.0926 -0.1125,-0.1984 -0.1427,-0.285 -0.0001,-0.0002 -0.4341,-0.6778 -0.5248,-0.7166 -0.032,-0.0138 -0.1519,-0.0211 -0.1937,-0.0183 -0.0611,0.004 -0.0902,0.0314 -0.1239,0.0772l-0.1743 0.1885c-0.0811,0.0612 -0.0266,0.0648 -0.1715,0.0504 -0.0447,-0.0044 -0.0619,0.0072 -0.0655,-0.0277 -0.0467,0.0169 -0.0171,0.0086 -0.0503,0.0262 -0.1119,-0.0727 -0.2126,-0.1884 -0.328,-0.2818 -0.0693,-0.0561 -0.2954,-0.232 -0.3694,-0.2536 -0.0102,-0.0903 -0.1439,-0.2316 -0.0778,-0.331 0.0171,-0.0542 0.0371,-0.0941 0.0591,-0.1453 0.0188,-0.0439 0.0342,-0.1013 0.0691,-0.1339 -0.0004,-0.07 0.0365,-0.045 0.009,-0.13 -0.0138,-0.0422 -0.0306,-0.0689 -0.0422,-0.1148 -0.0218,-0.0375 -0.0174,-0.0586 -0.0462,-0.0837 -0.0188,-0.0165 -0.0546,-0.0216 -0.08,-0.0546 -0.0562,-0.0019 -0.1893,-0.0735 -0.2491,-0.0988 -0.0508,-0.0217 -0.2049,-0.0659 -0.2378,-0.0886 -0.0912,-0.0199 -0.1693,-0.0537 -0.2638,-0.0736 -0.1828,-0.0386 -0.3379,-0.0815 -0.526,-0.1031 -0.1227,-0.0142 -0.1525,-0.0056 -0.2201,0.0573 0.03,0.0199 0.0148,0.0027 -0.0367,0.0589 -0.0392,0.0427 -0.0306,0.0417 -0.0315,0.1102 -0.001,0.0856 0.0021,0.1754 0.0043,0.2613 0.0035,0.1396 0.0214,0.1251 -0.0545,0.199 -0.0441,0.0429 -0.0838,0.0771 -0.1209,0.1235 -0.2114,0.0085 -0.3707,0.0293 -0.5715,0.0541 -0.1134,0.0149 -0.2556,0.0842 -0.3301,-0.0125 -0.0754,-0.0077 -0.1469,-0.0403 -0.1723,-0.1114l-0.1391 -0.3955c-0.0339,-0.0705 -0.1042,-0.0557 -0.143,-0.1034 -0.0774,-0.0244 -0.0714,-0.0559 -0.1536,-0.0256 -0.0449,0.0165 -0.0819,0.0356 -0.1289,0.055 -0.0932,0.0383 -0.1768,0.0862 -0.2649,0.1154zm2.8746 6.6231c-0.1148,0.0279 -0.3159,0.107 -0.4383,0.0716 -0.1246,0.0409 -0.7507,-0.0326 -0.8459,-0.0988 -0.0939,-0.0158 -0.4868,-0.1696 -0.5452,-0.243 -0.0755,-0.0124 -0.3796,-0.2524 -0.4327,-0.3059 -0.1239,-0.1248 -0.2625,-0.2446 -0.3623,-0.3942 -0.049,-0.0735 -0.1814,-0.2202 -0.1917,-0.3131 -0.0497,-0.0383 -0.1097,-0.1849 -0.1369,-0.2458 -0.0327,-0.0731 -0.0876,-0.2168 -0.1048,-0.2988l-0.0689 -0.2348c-0.03,-0.2394 -0.063,-0.432 -0.0593,-0.6909 0.0019,-0.1254 0.0155,-0.2119 0.0303,-0.3348l0.0777 -0.3004c-0.001,-0.0456 0.0505,-0.2034 0.075,-0.2383 0.0641,-0.1971 0.3309,-0.6607 0.4656,-0.728 0.0448,-0.0956 0.0576,-0.0723 0.1192,-0.133 0.0402,-0.0395 0.0119,-0.034 0.0569,-0.0727l0.362 -0.255c0.1784,-0.0894 0.6216,-0.2921 0.8576,-0.2709 0.0707,-0.0311 0.1932,-0.0158 0.2749,-0.0076 0.4921,0.0123 1.0477,0.1801 1.427,0.472 0.1692,0.1302 0.1238,0.0522 0.3008,0.2321 0.1856,0.1889 0.3143,0.324 0.4655,0.5764 0.3059,0.5106 0.4572,1.045 0.4016,1.6749 -0.0213,0.1671 -0.0649,0.4194 -0.1217,0.5703 -0.0349,0.0928 -0.1598,0.4324 -0.2274,0.4738 -0.0209,0.1152 -0.3077,0.4363 -0.4059,0.5201l-0.5317 0.3911c-0.0699,0.0381 -0.154,0.0641 -0.2203,0.0925 -0.0763,0.0328 -0.1476,0.0585 -0.2211,0.0912z"/>
  <path fill="#323232" fill-opacity="param(fill-opacity)" stroke="none" stroke-opacity="none" stroke-width="none" fill-rule="nonzero" d="M1.003 3.0513c-0.016,0.0293 -0.3029,0.2162 -0.3611,0.2565 -0.0671,0.0463 -0.1195,0.0797 -0.187,0.1261 -0.0879,0.0604 -0.0702,0.0693 -0.1243,0.1646l-0.1594 0.5569c0.0074,0.0674 -0.0081,0.1465 -0.0225,0.2123 -0.0139,0.1503 -0.0484,0.2872 -0.0498,0.4434 -0.0012,0.1252 -0.0034,0.1167 0.0634,0.1835 0.0293,0.0293 0.1006,0.1045 0.1224,0.112 0.0806,0.0273 0.385,0.0011 0.4541,0.0295 0.0276,0.0112 0.0948,0.0947 0.1228,0.1237 0.0726,0.0752 0.0605,0.0515 0.0609,0.1875l0.0323 0.2343 0.0266 0.06c0.0054,0.0185 0.0099,0.0423 0.015,0.0628l0.0897 0.3755c-0.001,0.0266 -0.0262,0.0872 -0.0414,0.1119 -0.0274,0.0443 -0.2442,0.1503 -0.2953,0.1678 -0.0429,0.031 -0.1263,0.0613 -0.1815,0.0985 -0.0557,0.0376 -0.0633,0.1264 -0.1009,0.1788 -0.023,0.0844 -0.0251,0.0668 0.0104,0.1457 0.0187,0.0412 0.0363,0.0824 0.0551,0.1277 0.0346,0.0831 0.0802,0.1714 0.1061,0.2521 0.0344,0.0409 0.3216,0.4691 0.3282,0.5047l0.016 0.0149c0.0021,0.0022 0.0052,0.0051 0.0074,0.0075l0.0549 0.0774c0.0924,0.138 0.179,0.2093 0.2306,0.2775l0.1521 0.0074c0.1937,0.0015 0.2212,-0.0674 0.378,-0.109l0.3684 -0.1549 0.1303 0.1374 0.0291 0.0281c0.0882,0.0663 0.1916,0.132 0.2848,0.1955 0.0388,0.0265 0.1232,0.0701 0.1449,0.1031 0.0251,0.038 0.0546,0.1349 0.0546,0.1753 0.0135,0.0137 0.0085,-0.0095 0.0229,0.0334 0.0142,0.042 -0.0702,0.1918 -0.0883,0.2347 -0.0613,0.1448 -0.1036,0.1815 -0.0702,0.2759 0.0636,0.1795 0.0406,0.1629 0.1594,0.2185 0.1148,0.0536 0.0757,0.0452 0.2016,0.0849 0.0081,0.0026 0.0338,0.0117 0.0397,0.0145 0.0356,0.0163 0.0098,0.0025 0.0265,0.0157 0.0964,-0.0046 0.359,0.105 0.4854,0.1232 0.176,0.0255 0.3656,0.044 0.5341,0.0776 0.1606,0.0099 0.3844,-0.1076 0.5451,-0.14l0.6881 -0.2195c-0.0452,-0.0347 -0.4111,-0.0664 -0.5047,-0.0832 -0.417,-0.0745 -0.5282,-0.1367 -0.8936,-0.2771 -0.0698,-0.0267 -0.0699,-0.0138 -0.0946,-0.0525 -0.0199,-0.0312 -0.0292,-0.0767 -0.04,-0.1044 -0.066,-0.1712 -0.0417,-0.1481 0.0862,-0.4356 0.0347,-0.078 0.068,-0.1161 0.0411,-0.2008 -0.029,-0.0911 -0.0399,-0.173 -0.0825,-0.1979 -0.0773,-0.0451 -0.2052,-0.0911 -0.2948,-0.1488 -0.0526,-0.034 -0.1784,-0.1618 -0.22,-0.2115 -0.0373,-0.0447 -0.0932,-0.1176 -0.1378,-0.1495 -0.0567,-0.0405 -0.1846,-0.0221 -0.2685,-0.0222 -0.0392,0.0121 -0.0327,0.0171 -0.0563,0.0391 -0.0234,0.0219 -0.0206,0.0173 -0.0502,0.0406l-0.2586 0.2648c-0.2644,0.0107 -0.2473,0.0077 -0.369,-0.1411l-0.1786 -0.2127c-0.0998,-0.1268 -0.3574,-0.5548 -0.4279,-0.6953 -0.0273,-0.0542 -0.0502,-0.1239 -0.0759,-0.1829 -0.058,-0.1326 -0.1212,-0.1844 -0.0396,-0.3146 0.0592,-0.0943 0.0932,-0.1043 0.1712,-0.1309 0.0541,-0.0185 0.1444,-0.045 0.1915,-0.0697 0.1432,-0.0748 0.1699,-0.0969 0.2358,-0.2602 0.0309,-0.0765 0.0094,-0.1072 -0.0125,-0.1872 -0.0363,-0.1327 -0.057,-0.2849 -0.0987,-0.4126 -0.1074,-0.3283 0.0166,-0.2864 -0.113,-0.3948 -0.154,-0.1289 -0.0716,-0.1246 -0.3781,-0.1339 -0.2751,-0.0083 -0.1707,0.0378 -0.2933,-0.0814 -0.1301,-0.1264 -0.1128,-0.0479 -0.1197,-0.2656 -0.003,-0.096 0.0636,-0.5793 0.0796,-0.6653l0.171 -0.5904c0.0277,-0.1242 0.0781,-0.1354 0.0491,-0.1653 -0.0673,0.0492 -0.3113,0.2247 -0.3772,0.248zm3.2168 -0.6156l-0.362 0.255c-0.045,0.0388 -0.0167,0.0333 -0.0569,0.0727 -0.0616,0.0606 -0.0744,0.0374 -0.1192,0.133l0.2027 -0.0317c0.0608,-0.0094 0.143,-0.0184 0.2043,-0.0054 0.0485,-0.027 0.3773,-0.0195 0.4235,0.0144 0.0469,-0.0034 0.1055,0.0035 0.1435,0.0175l0.2751 0.064 0 0.0232c0.2348,0.0048 0.7386,0.3761 0.9156,0.5427 0.1269,0.1195 0.2257,0.2337 0.3391,0.3914 0.0463,0.0644 0.2539,0.3901 0.2565,0.4693 0.0407,0.0369 0.0853,0.1906 0.1057,0.2516 0.0276,0.0828 0.0606,0.1981 0.071,0.2888 0.0144,0.0423 0.0036,0.0724 0.0303,0.1048l0.0123 0.1618c0.0644,0.1764 -0.0215,0.6388 -0.0446,0.8344 -0.0556,0.1565 -0.0356,0.1624 -0.1312,0.3899 -0.1125,0.268 -0.2439,0.4408 -0.4226,0.6465 -0.0877,0.1009 -0.174,0.1703 -0.282,0.2637 0.1223,0.0354 0.3235,-0.0437 0.4383,-0.0716 0.0734,-0.0328 0.1448,-0.0585 0.2211,-0.0912 0.0662,-0.0284 0.1504,-0.0544 0.2203,-0.0925l0.5317 -0.3911c0.0982,-0.0838 0.385,-0.4049 0.4059,-0.5201 0.0675,-0.0414 0.1924,-0.381 0.2274,-0.4738 0.0568,-0.1509 0.1004,-0.4031 0.1217,-0.5703 0.0556,-0.6299 -0.0957,-1.1643 -0.4016,-1.6749 -0.1512,-0.2524 -0.2798,-0.3875 -0.4655,-0.5764 -0.177,-0.1799 -0.1316,-0.1019 -0.3008,-0.2321 -0.3792,-0.2919 -0.9348,-0.4597 -1.427,-0.472 -0.0817,-0.0083 -0.2042,-0.0235 -0.2749,0.0076 -0.236,-0.0213 -0.6791,0.1815 -0.8576,0.2709zm1.3895 6.376c0.0451,0.1035 0.088,0.2289 0.1257,0.3356 0.0358,0.1014 0.0214,0.0801 0.1116,0.1237 0.0479,0.0231 0.1078,0.0679 0.1642,0.0586 0.1441,-0.0239 0.6288,-0.2219 0.7184,-0.213 0.0094,-0.0075 0.0105,-0.0091 0.0282,-0.0177 0.0157,-0.0078 0.013,-0.0062 0.0294,-0.0121l0.4316 -0.1331c-0.0039,-0.0572 -0.1754,-0.0864 -0.2069,-0.144 -0.1094,-0.1994 -0.0786,-0.4149 -0.2426,-0.4872 -0.1285,-0.0567 -0.1105,-0.0813 -0.2602,-0.0457 -0.244,0.0581 -0.3673,0.1204 -0.622,0.1194 -0.0659,-0.0003 -0.1189,-0.0141 -0.1525,0.0168 -0.0131,0.0121 -0.0259,0.034 -0.0414,0.0501 -0.0666,0.0687 -0.0977,0.0422 -0.095,0.1803 0.0013,0.0606 0.0013,0.1188 0.0115,0.1682zm2.8475 -2.0214c-0.0126,0.0372 -0.037,0.0685 -0.0588,0.1017 -0.001,0.0015 -0.0309,0.0472 -0.0312,0.048 -0.0194,0.048 -0.0256,0.0164 0.0007,0.0363l0.4788 -0.1691 0.3661 -0.1471c-0.0571,-0.0455 -0.3597,-0.2154 -0.4248,-0.2021 -0.026,0.0052 -0.0869,0.0303 -0.1173,0.0404 -0.0817,0.0269 -0.0603,0.0074 -0.094,0.0771 -0.0373,0.0775 -0.0751,0.1428 -0.1196,0.2149zm-0.3825 -4.8154c-0.0225,0.0296 -0.0325,0.0309 -0.0699,0.0512 -0.0311,0.0169 -0.0425,0.0233 -0.0749,0.0357l-0.0889 0.0469c0.0035,0.0348 0.0208,0.0232 0.0655,0.0277 0.1449,0.0144 0.0904,0.0108 0.1715,-0.0504l0.1743 -0.1885c-0.0693,0.0136 -0.111,0.0717 -0.1776,0.0774zm-3.1654 -1.2955c-0.0174,0.0515 -0.5388,0.3238 -0.5626,0.4147 0.0745,0.0967 0.2167,0.0274 0.3301,0.0125 0.2008,-0.0248 0.36,-0.0457 0.5715,-0.0541 0.0371,-0.0465 0.0768,-0.0806 0.1209,-0.1235 0.0759,-0.0739 0.0581,-0.0594 0.0545,-0.199 -0.0023,-0.0859 -0.0053,-0.1757 -0.0043,-0.2613 0.0009,-0.0685 -0.0077,-0.0675 0.0315,-0.1102 0.0515,-0.0562 0.0667,-0.039 0.0367,-0.0589 -0.0683,0.0586 -0.2028,0.1375 -0.2827,0.1917 -0.0767,0.0521 -0.2191,0.1581 -0.2956,0.1882zm-2.8683 0.8201c-0.0093,0.0235 -0.038,0.0351 -0.0711,0.0588l-0.5566 0.4233c-0.0038,0.0636 -0.0053,0.1327 -0.0043,0.1964 0.0017,0.1093 0.0201,0.0693 0.0547,0.1381 0.0699,0.0352 0.1217,0.1156 0.1736,0.1734 0.1219,0.1359 0.0784,0.0269 0.1111,0.2388 0.0242,0.0243 0.2719,0.152 0.3231,0.1753 0.0494,0.0225 0.1421,-0.005 0.1936,-0.0331 0.084,-0.0457 0.1331,-0.2065 0.2035,-0.3155l0.2183 -0.306c0.0552,-0.0594 0.0689,-0.0742 0.1266,-0.1267 0.0109,-0.3878 -0.0169,-0.2443 -0.1808,-0.4461 -0.0257,-0.0316 -0.0421,-0.0598 -0.0708,-0.0869 -0.0899,-0.0846 -0.0973,-0.0397 -0.0955,-0.2207 0.0004,-0.0427 0.0133,-0.1226 -0.0124,-0.1549 -0.0345,0.0201 -0.0674,0.0489 -0.1031,0.0741 -0.0346,0.0245 -0.0669,0.0467 -0.0996,0.0698 -0.0693,0.0493 -0.1398,0.1095 -0.2104,0.1418z"/>
  <path fill="none" stroke="param(outline)" stroke-opacity="param(outline-opacity)" stroke-width="param(outline-width)" d="M1.003 3.0514c-0.016,0.0292 -0.3029,0.2161 -0.3611,0.2564 -0.0671,0.0463 -0.1195,0.0797 -0.187,0.1261 -0.0879,0.0604 -0.0702,0.0693 -0.1243,0.1646l-0.1594 0.5569c0.0074,0.0674 -0.008,0.1464 -0.0225,0.2124 -0.014,0.1502 -0.0484,0.287 -0.0498,0.4433 -0.0012,0.1252 -0.0033,0.1167 0.0634,0.1835 0.0293,0.0293 0.1006,0.1045 0.1224,0.112 0.0806,0.0273 0.3851,0.0011 0.4541,0.0294 0.0276,0.0113 0.0949,0.0949 0.1228,0.1238 0.0727,0.0751 0.0605,0.0515 0.0608,0.1875l0.0323 0.2343 0.0267 0.06c0.0054,0.0185 0.0099,0.0423 0.015,0.0628l0.0897 0.3755c-0.001,0.0266 -0.0261,0.0872 -0.0414,0.1119 -0.0275,0.0443 -0.2443,0.1504 -0.2953,0.1678 -0.0429,0.031 -0.1263,0.0613 -0.1815,0.0986 -0.0557,0.0375 -0.0633,0.1262 -0.1008,0.1787 -0.0232,0.0844 -0.0252,0.0669 0.0102,0.1456 0.0188,0.0414 0.0364,0.0825 0.0552,0.1278 0.0346,0.0832 0.0801,0.1714 0.106,0.2522 0.0345,0.0408 0.3217,0.4689 0.3284,0.5047l0.016 0.0148c0.002,0.0021 0.0052,0.0051 0.0073,0.0075l0.0549 0.0773c0.0925,0.1382 0.1791,0.2094 0.2307,0.2776l0.152 0.0074c0.1937,0.0015 0.2211,-0.0674 0.378,-0.109l0.3684 -0.1549 0.1304 0.1373 0.0291 0.0283c0.088,0.0662 0.1916,0.1319 0.2847,0.1955 0.0388,0.0264 0.1232,0.07 0.1449,0.103 0.0251,0.0381 0.0546,0.1349 0.0546,0.1753 0.0135,0.0137 0.0084,-0.0096 0.0228,0.0334 0.0142,0.042 -0.0701,0.1919 -0.0882,0.2348 -0.0613,0.1448 -0.1036,0.1814 -0.0702,0.2757 0.0636,0.1795 0.0407,0.163 0.1594,0.2185 0.1147,0.0537 0.0757,0.0453 0.2016,0.0851 0.0081,0.0025 0.0338,0.0116 0.0397,0.0144 0.0356,0.0163 0.0098,0.0025 0.0266,0.0157 0.0964,-0.0046 0.3589,0.105 0.4853,0.1233 0.176,0.0254 0.3656,0.044 0.5341,0.0775 0.1606,0.0099 0.3844,-0.1076 0.545,-0.14l0.6883 -0.2195c0.108,-0.0282 0.0679,-0.0184 0.199,-0.145 0.0982,-0.0948 0.0033,-0.1974 0.0477,-0.2895 0.0452,0.1036 0.0881,0.229 0.1257,0.3357 0.0359,0.1015 0.0215,0.0801 0.1117,0.1237 0.0479,0.0231 0.1078,0.0679 0.1641,0.0586 0.1442,-0.0239 0.6289,-0.2219 0.7185,-0.213 0.0094,-0.0074 0.0105,-0.009 0.0282,-0.0176 0.0157,-0.0079 0.013,-0.0063 0.0294,-0.0122l0.4316 -0.1331c0.0034,-0.0019 0.0083,-0.0087 0.0102,-0.0059 0.0091,0.013 0.0149,-0.0085 0.0208,-0.0119 0.0297,-0.017 -0.0096,0.0031 0.0324,-0.0186 0.0207,-0.0366 0.1944,-0.134 0.246,-0.1711 0.0783,-0.0564 0.1774,-0.1272 0.2591,-0.1719 0.071,-0.0624 0.6738,-0.4425 0.6841,-0.4649 0.003,-0.0566 0.0054,-0.1544 0.0016,-0.2097 -0.0053,-0.0742 -0.1272,-0.1805 -0.1824,-0.2378 -0.1399,-0.145 -0.1442,-0.0947 -0.1489,-0.2693 -0.0044,-0.1667 -0.0246,-0.1496 0.1573,-0.3651 0.0379,-0.0449 0.0237,-0.0216 0.0691,-0.0512l0.4787 -0.169 0.3662 -0.1473 0.1138 -0.0198c0.0027,-0.0024 0.0066,-0.0049 0.0088,-0.0062l0.0562 -0.0268c0.1441,-0.0512 0.0634,-0.0719 0.1263,-0.1362 -0.0007,-0.0542 0.0506,-0.1958 0.069,-0.2569 0.0243,-0.081 0.0423,-0.1794 0.0618,-0.2554 0.01,-0.0584 0.0221,-0.1176 0.0314,-0.1723 0.0082,-0.0477 0.0061,-0.1204 0.033,-0.149l0.0083 -0.1486 0.0229 -0.3169c0.0023,-0.073 -0.0156,-0.0833 -0.0487,-0.128 -0.0254,-0.0343 -0.0542,-0.0768 -0.0745,-0.0997l-0.0073 -0.0252c-0.0202,0.0032 -0.0143,0.0069 -0.0143,-0.0149 -0.0455,-0.058 -0.1704,-0.0336 -0.2418,-0.0404 -0.2446,-0.0309 -0.1934,0.0478 -0.3452,-0.1144 -0.0578,-0.0618 -0.0638,-0.0438 -0.0753,-0.1448 -0.0074,-0.0656 -0.0217,-0.1582 -0.0229,-0.2231 -0.0187,-0.0532 -0.0428,-0.1783 -0.0368,-0.2343 -0.0023,-0.0029 -0.0046,-0.0113 -0.0054,-0.0094l-0.0164 -0.0401c-0.0486,-0.1697 -0.0944,-0.279 -0.0344,-0.3814 0.0161,-0.0276 -0.0041,-0.0036 0.0184,-0.0246 -0.0013,-0.0744 0.0214,-0.0433 0.1636,-0.1152 0.2714,-0.1371 0.2755,-0.0864 0.3733,-0.3486 0.0289,-0.0775 0.0015,-0.0446 -0.0014,-0.116l-0.0406 -0.0564c-0.0149,-0.0279 -0.0212,-0.0418 -0.0329,-0.0707 -0.0219,-0.0534 -0.0423,-0.0962 -0.0643,-0.1444 -0.0418,-0.0926 -0.1125,-0.1984 -0.1425,-0.285 -0.0002,-0.0001 -0.4342,-0.6779 -0.5248,-0.7167 -0.0321,-0.0137 -0.152,-0.021 -0.1937,-0.0182 -0.0613,0.004 -0.0904,0.0314 -0.1241,0.0772 -0.0691,0.0136 -0.1109,0.0716 -0.1776,0.0774 -0.0224,0.0296 -0.0324,0.0309 -0.0698,0.0512 -0.0312,0.0169 -0.0425,0.0234 -0.0749,0.0357l-0.0888 0.0469c-0.0469,0.017 -0.0172,0.0086 -0.0505,0.0262 -0.1118,-0.0727 -0.2125,-0.1884 -0.3279,-0.2819 -0.0693,-0.056 -0.2955,-0.2319 -0.3694,-0.2535 -0.0102,-0.0903 -0.1439,-0.2316 -0.0777,-0.331 0.0169,-0.0541 0.037,-0.0941 0.0591,-0.1453 0.0187,-0.0439 0.0341,-0.1013 0.069,-0.1339 -0.0004,-0.07 0.0365,-0.045 0.0089,-0.13 -0.0137,-0.0422 -0.0304,-0.0688 -0.0421,-0.1148 -0.0218,-0.0374 -0.0174,-0.0586 -0.0461,-0.0838 -0.0189,-0.0164 -0.0547,-0.0215 -0.0801,-0.0544 -0.0562,-0.002 -0.1893,-0.0736 -0.2491,-0.099 -0.0508,-0.0215 -0.2049,-0.0658 -0.2378,-0.0884 -0.0912,-0.02 -0.1693,-0.0538 -0.2638,-0.0737 -0.1828,-0.0386 -0.3379,-0.0815 -0.526,-0.1031 -0.1228,-0.0141 -0.1524,-0.0056 -0.22,0.0574 -0.0684,0.0586 -0.2028,0.1375 -0.2828,0.1918 -0.0767,0.0521 -0.2191,0.1581 -0.2955,0.1881 -0.0175,0.0515 -0.539,0.3238 -0.5627,0.4148 -0.0754,-0.0079 -0.1469,-0.0404 -0.1723,-0.1115l-0.1391 -0.3955c-0.0338,-0.0705 -0.1042,-0.0557 -0.1431,-0.1034 -0.0774,-0.0244 -0.0713,-0.0559 -0.1535,-0.0257 -0.0449,0.0166 -0.0819,0.0357 -0.1289,0.0551 -0.0933,0.0383 -0.1768,0.0862 -0.2649,0.1154 -0.0173,0.0279 -0.2051,0.1174 -0.2532,0.1482 -0.091,0.0582 -0.1654,0.1121 -0.2514,0.1666 -0.0537,0.0449 -0.1155,0.0897 -0.174,0.1379 -0.0513,0.0421 -0.1101,0.0978 -0.1639,0.1341 0.0186,-0.0236 0.0335,-0.0389 0.0469,-0.0692 -0.0196,0.0079 -0.039,0.015 -0.0524,0.0242l-0.0427 0.0434c-0.0345,0.0201 -0.0674,0.0489 -0.1031,0.0741 -0.0346,0.0244 -0.0669,0.0467 -0.0995,0.0699 -0.0694,0.0492 -0.1399,0.1094 -0.2105,0.1418 -0.0094,0.0234 -0.038,0.035 -0.0711,0.0586l-0.5566 0.4235c-0.0038,0.0635 -0.0053,0.1326 -0.0044,0.1963 0.0018,0.1093 0.0202,0.0693 0.0548,0.1381 0.0699,0.0352 0.1217,0.1155 0.1736,0.1734 0.1219,0.1359 0.0784,0.0269 0.1111,0.2388 -0.0526,-0.0127 -0.0605,-0.0328 -0.1094,-0.0282 -0.0417,0.0039 -0.0425,0.02 -0.0969,0.0189 -0.0183,0.0177 0.0029,0.0022 -0.0242,0.0168 -0.0542,0.0291 -0.0656,0.0087 -0.1375,0.0674 -0.0673,0.0492 -0.3113,0.2247 -0.3772,0.2481zm4.7779 4.2719c-0.1246,0.0409 -0.7508,-0.0326 -0.8459,-0.0988 -0.0939,-0.0158 -0.4868,-0.1695 -0.5452,-0.243 -0.0755,-0.0124 -0.3796,-0.2524 -0.4327,-0.3059 -0.1239,-0.1249 -0.2626,-0.2445 -0.3623,-0.3942 -0.049,-0.0735 -0.1814,-0.2202 -0.1917,-0.313 -0.0497,-0.0384 -0.1096,-0.1851 -0.1369,-0.2459 -0.0327,-0.0731 -0.0876,-0.2168 -0.1048,-0.2988l-0.0689 -0.2348c-0.03,-0.2394 -0.0631,-0.432 -0.0593,-0.6909 0.0019,-0.1254 0.0155,-0.2119 0.0303,-0.3348l0.0777 -0.3004c-0.001,-0.0456 0.0505,-0.2034 0.075,-0.2383 0.0641,-0.197 0.3309,-0.6607 0.4656,-0.728l0.2027 -0.0317c0.0608,-0.0094 0.1429,-0.0184 0.2043,-0.0053 0.0486,-0.0271 0.3773,-0.0196 0.4235,0.0143 0.0469,-0.0035 0.1055,0.0035 0.1435,0.0175l0.2751 0.0641 0 0.0231c0.2348,0.0048 0.7386,0.3761 0.9156,0.5427 0.1269,0.1196 0.2257,0.2337 0.3391,0.3914 0.0463,0.0644 0.2539,0.3901 0.2565,0.4693 0.0407,0.0369 0.0853,0.1906 0.1057,0.2516 0.0276,0.0828 0.0606,0.1982 0.071,0.2888 0.0144,0.0423 0.0036,0.0725 0.0303,0.1048l0.0123 0.1618c0.0644,0.1764 -0.0215,0.6388 -0.0447,0.8344 -0.0555,0.1565 -0.0355,0.1624 -0.131,0.39 -0.1126,0.2679 -0.244,0.4407 -0.4228,0.6465 -0.0876,0.1008 -0.174,0.1702 -0.2819,0.2636z"/>
 </g>
</svg>
