<?xml version="1.0" encoding="UTF-8"?>
<!DOCTYPE svg PUBLIC "-//W3C//DTD SVG 1.0//EN" "http://www.w3.org/TR/2001/REC-SVG-20010904/DTD/svg10.dtd">
<!-- Creator: CorelDRAW 2020 (64 Bit) -->
<svg enable-background="new 0 0 260 260" height="260" viewBox="0 0 260 260" width="260" xmlns="http://www.w3.org/2000/svg">
 <g id="Camada_x0020_1">
  <metadata id="CartografiaSocial"/>
  <path d="M86.1779 222.9779c0,1.8831 0.6108,2.6321 0.1643,4.1992 -0.6798,2.3909 -3.3246,6.8035 -3.3246,11.6158 0,14.7381 14.3247,-0.6772 33.38,-0.9233 4.4253,-0.0539 7.0467,0.4719 11.2978,0.4719 8.9399,0 14.2937,-1.1004 22.5771,0.8928 8.4375,2.0266 13.3606,5.8846 18.4883,5.8846 7.2369,0 3.6762,-10.8923 2.5423,-14.2885 -2.3727,-7.1061 -1.1877,-2.4576 -1.1877,-12.3753 0,-6.0987 -2.4152,-11.1728 -6.051,-15.2381l0.1638 0.1847c-1.8497,-2.9986 -3.6018,-8.0474 -4.6766,-10.8665 -7.4856,-19.5942 -11.6416,-39.8574 -5.9338,-60.5494 1.4932,-5.4205 4.3151,-11.6799 7.6525,-16.182 3.2811,-4.4276 6.7134,-8.517 11.1616,-11.821 3.8966,-2.8913 6.1391,-4.479 10.5719,-6.6107 1.1621,-0.5568 2.4649,-0.9618 3.5731,-1.5549l5.4054 -2.873c-0.6386,-2.0857 -1.2827,-4.0328 -1.9523,-6.0437l-2.9475 -8.6477 -5.341 -3.5812c-2.1547,-1.4468 -3.1397,-3.5044 -4.7662,-5.346 -4.6253,-5.2436 -6.8365,-5.8953 -13.6247,-6.6058 -5.8539,-0.6131 -10.5383,-2.9017 -14.9068,-6.7675 -0.8618,-0.7621 -4.7329,-4.7201 -5.4025,-4.9665 -6.5495,0 -8.4914,11.8057 -12.8368,14.9946l-1.6726 1.2259 5.564 17.2723 20.8381 -0.0409 -16.8772 12.2339 6.475 19.8327 -16.8337 -12.2956 0 0.0026 -16.8363 12.2956 6.4771 -19.8325 -16.8824 -12.2341 20.8381 0.0409 5.0514 -15.6689 -1.3213 0.9697 -1.4596 -6.2617c-0.4157,-1.7909 -3.1504,-6.4209 -4.2664,-7.9627 -6.3362,-8.7608 -6.698,-2.9965 -13.0394,1.7544 -4.461,3.34 -8.0833,4.8256 -13.7114,5.4413 -5.1207,0.5592 -5.7541,0.2078 -9.8151,3.3989 -3.1783,2.4988 -5.5695,6.7675 -8.1807,8.5196l-5.1642 3.4629c-0.2565,1.3059 -0.9027,2.473 -1.3955,3.7174 -1.2775,3.24 -2.5706,6.9879 -3.7455,10.9514l5.5103 2.9142c0.9905,0.5285 2.1677,0.8978 3.2069,1.3801 4.4097,2.0469 6.8517,3.7557 10.7047,6.6133 12.0367,8.9402 18.4219,21.9979 20.9357,36.5481 2.8939,16.7644 -1.5236,36.3867 -7.7369,52.235l-4.7332 10.7592 0.0224 -0.0253c-0.63,0.73 -1.2129,1.4947 -1.7435,2.2953 -4.2716,6.4467 -4.2357,9.9997 -4.2357,17.4546zm8.0622 -21.8937c-0.0583,0.0534 -0.1154,0.1078 -0.1732,0.1617 0.0578,-0.0539 0.1149,-0.1083 0.1732,-0.1617zm-0.7254 0.6902c-0.0542,0.0537 -0.107,0.1083 -0.1607,0.1625 0.0537,-0.0542 0.1063,-0.1089 0.1607,-0.1625zm-0.6923 0.7123c-0.05,0.0537 -0.0987,0.1086 -0.1482,0.1628 0.0495,-0.0542 0.0982,-0.1091 0.1482,-0.1628zm47.9585 53.9327c6.1003,0 13.6502,-7.8703 16.2463,-11.7492 -3.1452,-0.7311 -6.1464,-1.9935 -9.5098,-2.6808 -9.6304,-1.9625 -29.6783,-2.3167 -39.1493,0.0539 -1.3392,0.336 -3.3299,0.8004 -4.6561,1.2132 -1.6033,0.4977 -2.8142,1.034 -4.4534,1.4137 0.5719,2.1419 4.9946,5.9617 6.6647,7.3395 9.8328,8.1219 15.1329,3.7377 22.2208,-1.0131 0.9621,0.6438 1.2955,1.1184 2.2547,1.8135 3.6611,2.6527 5.7541,3.6093 10.3821,3.6093zm-68.5916 -185.278c1.8549,-1.2439 2.9913,-4.4584 7.9244,-8.3347 4.7483,-3.7296 5.8489,-3.6067 11.9747,-4.2787 5.3924,-0.5904 8.2016,-2.05 11.6286,-4.6178 5.2027,-3.8992 9.7739,-13.6345 19.0194,-0.8491 1.3364,1.8471 4.3998,7.0827 4.9616,9.4916 2.9319,-2.1524 5.7486,-15.815 15.3431,-15.815 4.9561,0 8.1138,10.4305 20.7558,11.757 7.5166,0.7899 10.8105,1.7263 16.3617,8.0166 1.2288,1.3955 2.5938,3.7221 3.9482,4.63 -1.0314,-4.4506 -6.7878,-10.8537 -10.0304,-13.9039 -2.2782,-2.1396 -4.8715,-3.1629 -8.0758,-4.1148 -13.9372,-4.1531 -17.8851,-22.6518 -37.8512,-22.6518 -19.8814,0 -24.0963,18.3755 -37.505,22.5469 -6.2594,1.9469 -10.2484,4.7457 -14.0323,10.3508 -1.47,2.1755 -3.7841,5.0434 -4.4201,7.7755l-0.0026 -0.0026zm-44.0772 -63.8201c-2.5011,3.048 -4.5305,6.1622 -4.5305,10.487 0,16.2362 49.4672,23.042 65.5261,23.042 -0.7441,1.6674 0.1232,0.5157 -1.7955,1.6981 -5.5208,3.4221 -8.2552,6.026 -12.4828,10.872 -5.6619,6.4928 -6.6058,10.4638 -9.7255,15.7176 -7.5343,0 -17.1389,-1.3981 -23.3647,-2.6113 -7.5986,-1.483 -12.5909,-3.0194 -19.0272,-5.5926 -19.7814,-7.9062 -28.6984,-25.1428 -18.388,-40.345 1.0848,-1.6031 2.6805,-3.2166 4.1737,-4.4865 0.9926,-0.8441 1.308,-1.2108 2.1162,-1.9599 3.9534,-3.6684 19.3272,-13.1472 24.6451,-14.1427l-7.1467 7.3212zm200.3055 0c2.5011,3.048 4.5277,6.1622 4.5277,10.487 0,16.2362 -49.4646,23.042 -65.5261,23.042 0.7441,1.6674 -0.1229,0.5157 1.7932,1.6981 5.5234,3.4221 8.2578,6.026 12.4854,10.872 5.6617,6.4928 6.6058,10.4638 9.7252,15.7176 7.5343,0 17.1389,-1.3981 23.3647,-2.6113 7.5986,-1.483 12.5909,-3.0194 19.0272,-5.5926 19.7814,-7.9062 28.6982,-25.1428 18.3883,-40.345 -1.085,-1.6031 -2.6808,-3.2166 -4.1737,-4.4865 -0.9928,-0.8441 -1.3085,-1.2108 -2.1164,-1.9599 -3.9557,-3.6684 -19.3272,-13.1472 -24.6451,-14.1427l7.147 7.3212 0.0026 0zm-163.4495 113.5259c0,14.8094 6.0797,30.263 11.1332,40.3731 5.6927,11.3926 10.9798,23.1881 10.9798,40.0679l4.8329 -10.9798c5.6927,-14.5378 10.0794,-33.3467 7.3548,-49.1234 -2.2805,-13.2163 -7.9627,-25.0501 -18.8243,-33.118 -4.256,-3.1582 -4.9459,-3.8172 -9.7583,-6.0492 -1.3494,-0.6261 -2.2706,-0.8746 -3.4609,-1.5033 -2.0445,8.7837 -2.2573,11.3647 -2.2573,20.3328zm7.6729 1.3572c5.1869,0 12.4802,11.2824 13.5369,15.8176 -1.5288,-1.0262 -2.909,-3.0603 -4.8175,-3.7609 -1.1645,-0.4308 -12.9806,0.1438 -13.2319,-11.1538 1.8367,-1.1059 2.1959,-0.9056 4.5126,-0.9056l0 0.0026zm96.574 79.0838c0,-38.4747 30.8198,-53.6409 19.8528,-100.7738 -1.2543,0.6673 -2.3495,0.9725 -3.7656,1.6546 -5.1129,2.455 -5.1129,2.6782 -9.7098,6.0875 -4.0021,2.9707 -7.0829,6.6928 -10.0588,10.7154 -2.7295,3.6713 -5.4075,9.3788 -6.7977,14.4326 -5.372,19.471 -1.3366,38.6106 5.7718,57.2323 0.8209,2.1344 3.34,9.0788 4.7074,10.6514zm0.9004 -63.2661c0.8337,-3.5812 8.8503,-19.7916 18.0546,-14.9123 -0.2565,11.3746 -12.2312,10.6873 -13.5473,11.2902 -1.8393,0.8413 -2.9347,2.5678 -4.5073,3.6221zm-62.2756 85.4049c-2.7602,0 -4.9743,-1.5546 -6.4521,-3.0298 -5.8974,-5.8799 -2.8371,-15.4559 1.9424,-18.6602 0,5.5205 1.19,6.2313 5.2277,7.8679 10.1127,4.1047 5.6439,13.8221 -0.7181,13.8221zm33.8468 -7.2264c0,-1.0314 1.7343,-3.725 2.3935,-4.3842 4.0068,-4.0073 8.8889,-1.0134 8.8889,-10.0794 2.9861,2.0036 6.1156,7.9526 5.0434,12.7113 -2.7066,11.9854 -16.3258,11.2566 -16.3258,1.7523z" fill="param(fill)" fill-opacity="param(fill-opacity)" stroke="param(outline)" stroke-opacity="param(outline-opacity)" stroke-width="param(outline-width)"/>
 </g>
</svg>
