<?xml version="1.0" encoding="UTF-8"?>
<!DOCTYPE svg PUBLIC "-//W3C//DTD SVG 1.0//EN" "http://www.w3.org/TR/2001/REC-SVG-20010904/DTD/svg10.dtd">
<!-- Creator: CorelDRAW 2020 (64 Bit) -->
<svg enable-background="new 0 0 10 10" height="10" viewBox="0 0 10 10" width="10" xmlns="http://www.w3.org/2000/svg">
 <g id="Camada_x0020_1">
  <metadata id="CorelCorpID_0Corel-Layer"/>
  <rect fill="none" width="9.8425" height="9.8425"/>
  <path fill="yellow" fill-opacity="param(fill-opacity)" stroke="none" stroke-opacity="none" stroke-width="none" fill-rule="nonzero" d="M1.3043 3.541l1.8418 0c0.0281,0.0614 0.0787,0.1128 0.1493,0.1424 0.0988,0.0414 0.3034,0.0321 0.4201,0.0321l0 1.4506c0,0.231 0.127,0.358 0.358,0.358l1.6955 0c0.231,0 0.358,-0.127 0.358,-0.358l0 -1.4506 0.2072 0c0.135,0 0.2914,-0.032 0.3533,-0.1554 0.0032,-0.0064 0.0062,-0.0128 0.009,-0.0191l1.8401 0c0.0381,0.7446 -0.1704,1.3966 -0.507,2.1524l-0.3092 0.5953c-0.0389,0.0656 -0.0713,0.1148 -0.1051,0.1774 -0.1373,0.254 -0.2283,0.3613 -0.3451,0.5592l-0.2349 0.3491c-0.2931,0.4378 -0.6374,0.8469 -0.9674,1.2556 -0.0303,0.0375 -0.0312,0.0442 -0.068,0.0828 -0.2316,0.2431 -0.4248,0.5002 -0.7065,0.7818 -0.0757,0.0757 -0.2063,0.2496 -0.3344,0.2496 -0.2235,0 -0.2409,-0.0808 -0.4192,-0.2591 -0.1077,-0.1076 -0.1854,-0.2053 -0.2921,-0.3106l-0.4234 -0.4809c-0.2983,-0.3346 -1.0191,-1.2873 -1.2658,-1.692 -0.0416,-0.0683 -0.0784,-0.1158 -0.1203,-0.1811 -0.373,-0.5818 -0.7639,-1.3478 -0.9577,-2.0001 -0.1548,-0.5213 -0.1763,-0.7 -0.1763,-1.2554 0,-0.0079 0.0001,-0.0158 0.0002,-0.0238z"/>
  <path fill="yellow" fill-opacity="param(fill-opacity)" stroke="none" stroke-opacity="none" stroke-width="none" fill-rule="nonzero" d="M1.3043 3.541l1.8418 0c-0.0466,-0.1019 -0.0307,-0.2313 0.0603,-0.3345 0.0604,-0.0685 0.1891,-0.1563 0.2685,-0.2214 0.0979,-0.0801 0.1846,-0.146 0.2826,-0.2261 0.188,-0.1538 0.3652,-0.2899 0.5549,-0.4435 0.0996,-0.0806 0.183,-0.1453 0.2826,-0.2261 0.2762,-0.2242 0.3544,-0.245 0.6421,-0.0086 0.0976,0.0802 0.1846,0.146 0.2826,0.2261l0.8274 0.6609c0.1816,0.147 0.4696,0.3008 0.3493,0.5731l1.8401 0c-0.0118,-0.2323 -0.0477,-0.4735 -0.1111,-0.7298 -0.057,-0.23 -0.1335,-0.4377 -0.2326,-0.6341 -0.0793,-0.1574 -0.032,-0.0938 -0.1478,-0.2854 -0.0586,-0.0969 -0.102,-0.1767 -0.1686,-0.2647 -0.0638,-0.0844 -0.1174,-0.1662 -0.1905,-0.2428 -0.0444,-0.0466 -0.0521,-0.068 -0.094,-0.1133 -0.2568,-0.2778 -0.5216,-0.4827 -0.8469,-0.6791 -0.2692,-0.1627 -0.6122,-0.3043 -0.9195,-0.3804 -0.2557,-0.0633 -0.5002,-0.1005 -0.7382,-0.113l-0.3569 0c-0.5026,0.0268 -0.9845,0.167 -1.4911,0.4093 -0.0475,0.0227 -0.0966,0.0567 -0.1419,0.0842 -0.3537,0.2137 -0.5586,0.3797 -0.8376,0.6695 -0.0466,0.0484 -0.0565,0.0738 -0.1032,0.1229 -0.1199,0.1256 -0.3551,0.4781 -0.4369,0.6368 -0.0259,0.05 -0.0414,0.0995 -0.07,0.1561 -0.0991,0.1964 -0.1756,0.404 -0.2326,0.6341 -0.0506,0.2042 -0.1093,0.478 -0.1128,0.7298z"/>
  <path fill="none" fill-opacity="none" stroke="param(outline)" stroke-opacity="param(outline-opacity)" stroke-width="param(outline-width)" d="M4.7292 0.0984l0.3569 0c0.238,0.0125 0.4825,0.0497 0.7382,0.113 0.3073,0.0761 0.6503,0.2177 0.9195,0.3804 0.3253,0.1965 0.5901,0.4014 0.8469,0.6791 0.0419,0.0453 0.0496,0.0667 0.094,0.1133 0.073,0.0766 0.1267,0.1585 0.1905,0.2428 0.0666,0.088 0.11,0.1677 0.1686,0.2647 0.1158,0.1916 0.0685,0.1281 0.1478,0.2854 0.0991,0.1964 0.1756,0.404 0.2326,0.6341 0.2667,1.0778 0.0458,1.8906 -0.3959,2.8822l-0.3092 0.5953c-0.0389,0.0656 -0.0713,0.1148 -0.1051,0.1774 -0.1373,0.254 -0.2283,0.3613 -0.3451,0.5592l-0.2349 0.3491c-0.2931,0.4378 -0.6374,0.8469 -0.9674,1.2556 -0.0303,0.0375 -0.0312,0.0442 -0.068,0.0828 -0.2316,0.2431 -0.4248,0.5002 -0.7065,0.7818 -0.0757,0.0757 -0.2063,0.2496 -0.3344,0.2496 -0.2235,0 -0.2409,-0.0808 -0.4192,-0.2591 -0.1077,-0.1076 -0.1854,-0.2053 -0.2921,-0.3106l-0.4234 -0.4809c-0.2983,-0.3346 -1.0191,-1.2873 -1.2658,-1.692 -0.0416,-0.0683 -0.0784,-0.1158 -0.1203,-0.1811 -0.373,-0.5818 -0.7639,-1.3478 -0.9577,-2.0001 -0.1548,-0.5213 -0.1763,-0.7 -0.1763,-1.2554 0,-0.2583 0.0608,-0.5429 0.113,-0.7536 0.057,-0.23 0.1335,-0.4377 0.2326,-0.6341 0.0285,-0.0566 0.0441,-0.1061 0.07,-0.1561 0.0818,-0.1587 0.317,-0.5112 0.4369,-0.6368 0.0468,-0.0491 0.0567,-0.0745 0.1032,-0.1229 0.279,-0.2898 0.4839,-0.4558 0.8376,-0.6695 0.0454,-0.0275 0.0944,-0.0614 0.1419,-0.0842 0.5066,-0.2422 0.9886,-0.3825 1.4911,-0.4093z"/>
 </g>
</svg>
