<?xml version="1.0" encoding="UTF-8"?>
<!DOCTYPE svg PUBLIC "-//W3C//DTD SVG 1.0//EN" "http://www.w3.org/TR/2001/REC-SVG-20010904/DTD/svg10.dtd">
<!-- Creator: CorelDRAW 2020 (64 Bit) -->
<svg enable-background="new 0 0 10 10" height="10" viewBox="0 0 10 10" width="10" xmlns="http://www.w3.org/2000/svg">
 <g id="Camada_x0020_1">
  <metadata id="CorelCorpID_0Corel-Layer"/>
  <g id="_2577406663568">
   <rect fill="none" x="0.0985" width="9.8456" height="9.8456"/>
   <path fill="none" fill-opacity="none" stroke="param(outline)" stroke-opacity="param(outline-opacity) 50%" stroke-width="param(outline-width) 0.2" d="M9.0942 1.8462l-8.146 0c-0.4707,0 -0.8498,0.3791 -0.8498,0.8498l0 4.5415c0,0.4707 0.3791,0.8499 0.8498,0.8499l8.146 -0.0001c0.4707,0 0.8498,-0.3791 0.8498,-0.8498l0 -4.5415c0,-0.4707 -0.3791,-0.8498 -0.8498,-0.8498zm-6.7858 -0.248l-0.061 -0.2639c-0.0051,-0.0222 -0.0248,-0.0377 -0.0475,-0.0377l-0.7307 0c-0.0212,0 -0.0399,0.0136 -0.0464,0.0338l-0.0845 0.264c-0.0047,0.0148 -0.0022,0.031 0.007,0.0435 0.0093,0.0126 0.0238,0.02 0.0394,0.02l0.8763 0c0.0149,0 0.0288,-0.0067 0.0381,-0.0183 0.0093,-0.0116 0.0127,-0.0269 0.0094,-0.0414zm5.4602 -0.4118l-0.1729 0.4066c-0.0064,0.0151 -0.0048,0.0323 0.0042,0.046 0.0091,0.0136 0.0243,0.0218 0.0407,0.0218l1.3027 0c0.016,0 0.0311,-0.0079 0.0402,-0.0212 0.0091,-0.0133 0.011,-0.0301 0.0051,-0.0451l-0.1577 -0.4067c-0.0073,-0.0187 -0.0253,-0.031 -0.0454,-0.031l-0.9721 0c-0.0195,0 -0.0372,0.0116 -0.0448,0.0296zm-4.4051 0.4791l3.2966 0c0.0177,0 0.034,-0.0096 0.0425,-0.0251 0.0087,-0.0155 0.0082,-0.0344 -0.0012,-0.0494l-0.4452 -0.7128c-0.009,-0.0143 -0.0245,-0.0229 -0.0414,-0.0229l-2.3629 0c-0.0161,0 -0.0311,0.008 -0.0403,0.0212l-0.4883 0.7129c-0.0102,0.0149 -0.0113,0.0342 -0.0029,0.0502 0.0084,0.0159 0.025,0.026 0.043,0.026z"/>
   <g>
    <path fill="param(fill) #ff0000" fill-opacity="param(fill-opacity)" stroke="none" stroke-opacity="none" stroke-width="none" d="M5.9177 3.5744c-0.7444,0.0003 -1.3477,0.6039 -1.3474,1.3483 0,0.0003 0,0.0005 0,0.0009 0.0002,0.7443 0.6038,1.3477 1.3483,1.3474 0.7444,-0.0002 1.3477,-0.6038 1.3475,-1.3483 0,-0.0003 0,-0.0006 0,-0.0009 -0.0002,-0.7444 -0.6039,-1.3477 -1.3483,-1.3475zm-0.8333 -2.7192l0.0047 0.1825 0.3872 0 0 0.4612 -0.3751 0 0.0043 0.1666 1.5547 0c0.0177,0 0.034,-0.0096 0.0425,-0.0251 0.0087,-0.0155 0.0082,-0.0344 -0.0012,-0.0494l-0.4452 -0.7128c-0.009,-0.0143 -0.0245,-0.0229 -0.0414,-0.0229l-1.1307 0zm2.6844 0.3312l-0.1729 0.4066c-0.0064,0.0151 -0.0048,0.0323 0.0042,0.046 0.0091,0.0136 0.0243,0.0218 0.0407,0.0218l1.3027 0c0.016,0 0.0311,-0.0079 0.0402,-0.0212 0.0091,-0.0133 0.011,-0.0301 0.0051,-0.0451l-0.1577 -0.4067c-0.0073,-0.0187 -0.0253,-0.031 -0.0454,-0.031l-0.9721 0c-0.0195,0 -0.0372,0.0116 -0.0448,0.0296zm0.3432 3.2061l1.8321 0 0 2.845c0,0.4707 -0.3791,0.8498 -0.8498,0.8498l-8.146 0.0001c-0.4707,0 -0.8498,-0.3792 -0.8498,-0.8499l0 -2.6129 3.5828 0c-0.0129,0.0975 -0.0195,0.197 -0.0195,0.298 0,1.2462 1.0104,2.2564 2.2564,2.2564 1.2461,0 2.2564,-1.0103 2.2564,-2.2564 0,-0.1825 -0.0217,-0.3601 -0.0626,-0.5301z"/>
    <path fill="param(fill) #ff0000" fill-opacity="param(fill-opacity)" stroke="none" stroke-opacity="none" stroke-width="none" d="M2.3085 1.5982l-0.061 -0.2639c-0.0051,-0.0222 -0.0248,-0.0377 -0.0475,-0.0377l-0.7307 0c-0.0212,0 -0.0399,0.0136 -0.0464,0.0338l-0.0845 0.264c-0.0047,0.0148 -0.0022,0.031 0.007,0.0435 0.0093,0.0126 0.0238,0.02 0.0394,0.02l0.8763 0c0.0149,0 0.0288,-0.0067 0.0381,-0.0183 0.0093,-0.0116 0.0127,-0.0269 0.0094,-0.0414zm5.8035 2.7943l1.8321 0 0 -1.6965c0,-0.4707 -0.3791,-0.8498 -0.8498,-0.8498l-8.146 0c-0.4707,0 -0.8498,0.3791 -0.8498,0.8498l0 1.9285 3.5828 0c0.1459,-1.1052 1.0919,-1.9578 2.2369,-1.9578 1.0635,0 1.9552,0.7356 2.1938,1.7257zm-3.0276 -3.5373l0.0047 0.1825 -0.5059 0 0 0.4612 0.518 0 0.0043 0.1666 -1.7419 0c-0.018,0 -0.0347,-0.01 -0.043,-0.026 -0.0085,-0.016 -0.0074,-0.0353 0.0029,-0.0502l0.4883 -0.7129c0.0092,-0.0132 0.0241,-0.0212 0.0403,-0.0212l1.2323 0z"/>
   </g>
  </g>
 </g>
</svg>
