<?xml version="1.0" encoding="UTF-8"?>
<!DOCTYPE svg PUBLIC "-//W3C//DTD SVG 1.0//EN" "http://www.w3.org/TR/2001/REC-SVG-20010904/DTD/svg10.dtd">
<!-- Creator: CorelDRAW 2020 (64 Bit) -->
<svg xmlns="http://www.w3.org/2000/svg" xml:space="preserve" width="10mm" height="10mm" version="1.0" shape-rendering="geometricPrecision" text-rendering="geometricPrecision" image-rendering="optimizeQuality" fill-rule="evenodd" clip-rule="evenodd"
viewBox="0 0 10 10"
 xmlns:xlink="http://www.w3.org/1999/xlink"
 xmlns:xodm="http://www.corel.com/coreldraw/odm/2003">
 <g id="Camada_x0020_1">
  <metadata id="CorelCorpID_0Corel-Layer"/>
  <path fill="Param(fill) #FFF" d="M2.8888 8.3026l2.9296 0 0.3879 1.1728 -3.6886 -0.0009c0.0587,-0.2521 0.3045,-0.8864 0.3711,-1.1719zm7.0312 1.4412l0 0.0364c-0.0071,0.1422 -0.0981,0.2802 -0.2539,0.2802l-9.4922 0c-0.1463,0 -0.2419,-0.132 -0.2539,-0.2708l0 -0.0588c0.0118,-0.1334 0.1057,-0.2567 0.3114,-0.2574l1.6613 0.0011c0.0459,-0.197 0.1551,-0.4778 0.2173,-0.6812l0.2123 -0.686c-0.0804,-0.0215 -0.548,-0.378 -0.622,-0.4327l-1.2281 -0.8813c-0.1938,-0.1447 -0.5327,-0.329 -0.5327,-0.5024 0,-0.2328 0.0993,-0.3321 0.3321,-0.3321 0.1413,0 1.1033,0.7569 1.3202,0.9063l1.0348 0.7426c0.1387,0.1007 0.108,0.1106 0.3401,0.1091l2.6564 -0.0002 -1.3086 -3.8867 -2.3608 0.7837c-0.7748,0.2582 -1.1157,0.5385 -1.1157,-0.4517 0,-0.9581 0.4754,-2.0394 1.2138,-2.6338 0.1041,-0.0838 0.1362,-0.1291 0.2902,-0.2371 0.2131,-0.1495 0.6861,-0.4495 0.9374,-0.508 -0.0033,-0.1485 -0.0977,-0.2483 -0.0977,-0.3906 0,-0.0869 0.0313,-0.1511 0.0744,-0.199 0.0855,-0.0951 0.1573,-0.094 0.2577,-0.094 0.2168,0 0.3201,0.3264 0.332,0.4688 0.1026,0 0.1535,-0.0255 0.2461,-0.0469 0.0802,-0.0186 0.1459,-0.0295 0.2309,-0.0426 0.7755,-0.1189 1.5683,-0.0355 2.2641,0.2975 0.1407,0.0674 0.2438,0.1346 0.3727,0.2133 0.3327,0.203 0.5432,0.4231 0.7874,0.697 0.198,0.2221 0.6075,0.7214 0.221,0.9141l-3.0871 1.034c0.0427,0.183 0.4215,1.2544 0.5152,1.5356l0.6836 2.0508c0.0494,0.1482 0.1091,0.3719 0.1684,0.4956l1.7774 0c0.2463,-0.0011 0.3099,0.0117 0.3976,0.1884 0.0627,0.1263 0.7524,1.4756 0.7742,1.5695 0.1306,0 0.3689,-0.0142 0.4867,0.0016 0.1553,0.0207 0.2295,0.1413 0.236,0.2677zm-3.4766 -1.4412l1.5235 0 0.5738 1.1682 -1.7066 0.0037c-0.042,-0.18 -0.1344,-0.413 -0.1929,-0.5885 -0.0335,-0.1005 -0.0662,-0.1985 -0.0976,-0.2929 -0.0185,-0.0554 -0.0284,-0.0875 -0.0487,-0.1466 -0.0166,-0.0483 -0.0337,-0.1041 -0.0515,-0.1439zm-3.1222 -4.7768c-0.0765,-0.162 -0.1004,-0.6747 -0.1004,-0.9068 0,-0.3289 0.0556,-0.6276 0.1389,-0.8768 0.2269,-0.679 0.6164,-0.6151 1.0839,-0.307 0.3048,0.2009 0.5644,0.5361 0.7655,0.8361 0.0642,0.0956 0.2675,0.4253 0.2773,0.543l-2.1652 0.7115zm-0.7059 -0.8482c0,0.2434 0.0656,0.8868 0.1367,1.0351l-1.3086 0.4492c0,-0.8271 0.3399,-1.5627 0.8932,-2.0951 0.0502,-0.0483 0.0765,-0.0586 0.1274,-0.107 0.0494,-0.0472 0.0753,-0.0641 0.1272,-0.1071 0.043,-0.0357 0.0864,-0.0785 0.1413,-0.0931 -0.06,0.125 -0.1172,0.7087 -0.1172,0.918zm2.2852 -1.6602c0.8987,0 1.8206,0.3295 2.3718,1.0266 0.0522,0.0659 0.0682,0.0554 0.0891,0.1453 -0.1441,0.012 -1.1491,0.4066 -1.3086,0.4101 -0.0338,-0.1449 -0.1494,-0.335 -0.2231,-0.4605 -0.4535,-0.7721 -0.8568,-1.0133 -0.9292,-1.1215z"/>
 </g>
</svg>
